<ttFont>
<head>
    <!-- Most of this table will be recalculated by the compiler -->
    <tableVersion value="1.0"/>
    <fontRevision value="4.00299"/>
    <checkSumAdjustment value="0x32a6e13b"/>
    <magicNumber value="0x5f0f3cf5"/>
    <flags value="00000000 00000011"/>
    <unitsPerEm value="1000"/>
    <created value="Tue Mar  5 22:41:32 2019"/>
    <modified value="Tue Mar  5 22:41:32 2019"/>
    <xMin value="-505"/>
    <yMin value="-553"/>
    <xMax value="2679"/>
    <yMax value="1040"/>
    <macStyle value="00000000 00000010"/>
    <lowestRecPPEM value="3"/>
    <fontDirectionHint value="2"/>
    <indexToLocFormat value="0"/>
    <glyphDataFormat value="0"/>
  </head>
          <CharString index="0">
            hlineto
            -99 callsubr
            return
          </CharString>
          <CharString index="1">
            -100 callgsubr
            -337 rlineto
            3 vlineto
            -125 -21 -110 -82 -121 hhcurveto
            return
          </CharString>
          <CharString index="2">
            388 callsubr
            -52 -297 rlineto
            -57 -10 -32 -60 -79 hhcurveto
            -76 -15 60 54 10 hvcurveto
            6 31 rlineto
            -40 hlineto
            -6 -30 rlineto
            -80 -14 36 -70 96 hhcurveto
            101 50 71 82 14 hvcurveto
            52 296 rlineto
            return
          </CharString>
          <CharString index="3">
            rmoveto
            -103 529 callgsubr
            129 35 -98 -85 -11 hvcurveto
            -3 -20 rlineto
            -80 -17 -70 -105 -132 hhcurveto
            return
          </CharString>
          <CharString index="4">
            -125 -22 -92 -71 -98 hhcurveto
            -17 -19 2 3 -14 hvcurveto
            -6 -34 rlineto
            -3 14 22 -3 21 hhcurveto
            121 104 84 146 26 hvcurveto
            139 25 -82 88 -117 hhcurveto
            -103 -69 -57 -70 -38 hvcurveto
            161 callgsubr
            513 309 callgsubr
            return
          </CharString>
          <CharString index="5">
            -125 -22 -89 -71 -100 291 callsubr
            -15 hvcurveto
            -6 -33 rlineto
            -4 14 23 -3 22 hhcurveto
            119 106 85 147 26 hvcurveto
            138 24 -79 87 -117 hhcurveto
            -105 -72 -59 -71 -38 hvcurveto
            46 260 rlineto
            return
          </CharString>
          <CharString index="6">
            -42 callsubr
            122 22 103 74 108 hhcurveto
            144 561 callgsubr
            -16 -76 -110 -143 hhcurveto
            return
          </CharString>
          <CharString index="7">
            548 callsubr
            -106 -172 -30 hvcurveto
            492 hmoveto
            -147 -26 -113 -93 -127 hhcurveto
            -131 -75 90 150 26 hvcurveto
            150 26 108 89 225 callgsubr
            80 -94 -145 -26 hvcurveto
            return
          </CharString>
          <CharString index="8">
            -6 -35 rlineto
            return
          </CharString>
          <CharString index="9">
            346 -8 rmoveto
            232 176 196 236 169 -110 115 -174 -232 -176 -196 -235 -170 111 -115 173 hvcurveto
            6 41 rmoveto
            -144 -100 93 154 205 147 183 208 145 99 -92 -154 -209 -149 -180 -206 hvcurveto
            return
          </CharString>
          <CharString index="10">
            124 -70 callgsubr
            return
          </CharString>
          <CharString index="11">
            -47 callgsubr
            144 hmoveto
            22 22 21 24 17 -13 -64 callgsubr
            return
          </CharString>
          <CharString index="12">
            89 -87 callsubr
            -87 hhcurveto
            return
          </CharString>
          <CharString index="13">
            154 702 rmoveto
            545 callgsubr
            -190 -33 91 -81 140 hhcurveto
            140 117 81 190 33 hvcurveto
            78 438 rlineto
            -45 hlineto
            545 callgsubr
            -167 -29 -93 -64 -116 hhcurveto
            -116 -73 64 167 29 hvcurveto
            78 438 rlineto
            return
          </CharString>
          <CharString index="14">
            67 -119 -90 callsubr
            return
          </CharString>
          <CharString index="15">
            rmoveto
            -83 callsubr
            return
          </CharString>
          <CharString index="16">
            618 callsubr
            107 hhcurveto
            103 -67 callgsubr
            return
          </CharString>
          <CharString index="17">
            hhcurveto
            -100 callsubr
            return
          </CharString>
          <CharString index="18">
            -145 -26 -64 callsubr
            return
          </CharString>
          <CharString index="19">
            284 callgsubr
            233 hlineto
            -59 return
          </CharString>
          <CharString index="20">
            -55 callgsubr
            -16 -72 -65 return
          </CharString>
          <CharString index="21">
            1 9 rlineto
            -32 hlineto
            -54 -9 -38 -31 -63 hhcurveto
            -62 -26 31 54 9 hvcurveto
            -32 hlineto
            -2 -9 rlineto
            -57 -9 29 -56 87 hhcurveto
            88 49 56 57 10 hvcurveto
            return
          </CharString>
          <CharString index="22">
            72 callgsubr
            -73 callsubr
            return
          </CharString>
          <CharString index="23">
            180 159 -102 callgsubr
            return
          </CharString>
          <CharString index="24">
            6 35 rlineto
            return
          </CharString>
          <CharString index="25">
            -12 callgsubr
            13 71 -27 53 -42 26 rrcurveto
            248 hlineto
            29 callgsubr
            return
          </CharString>
          <CharString index="26">
            hhcurveto
            83 75 483 callgsubr
            -90 callgsubr
            return
          </CharString>
          <CharString index="27">
            -81 callgsubr
            79 hlineto
            32 174 rlineto
            endchar
          </CharString>
          <CharString index="28">
            -6 callsubr
            -148 -26 52 -92 132 41 callsubr
            -57 -325 rlineto
            40 hlineto
            return
          </CharString>
          <CharString index="29">
            -7 callsubr
            11 61 3 callsubr
            return
          </CharString>
          <CharString index="30">
            505 665 rmoveto
            7 37 rlineto
            -354 165 callsubr
            355 354 callgsubr
            -310 hlineto
            53 297 353 callgsubr
            36 512 callsubr
            52 295 rlineto
            return
          </CharString>
          <CharString index="31">
            -82 callsubr
            endchar
          </CharString>
          <CharString index="32">
            -94 callgsubr
            -89 callsubr
            return
          </CharString>
          <CharString index="33">
            195 callgsubr
            -101 callgsubr
          </CharString>
          <CharString index="34">
            -29 callgsubr
            -107 -19 71 -86 153 hhcurveto
            -19 callgsubr
            return
          </CharString>
          <CharString index="35">
            -86 -71 -52 -86 -15 hvcurveto
            -1 -8 -1 -11 -7 vvcurveto
            32 hlineto
            7 1 8 1 6 vhcurveto
            69 10 59 42 64 hhcurveto
            74 43 -55 -75 -13 hvcurveto
            -92 -17 -90 -66 -111 hhcurveto
            -145 -87 98 142 25 hvcurveto
            166 29 133 80 147 hhcurveto
            return
          </CharString>
          <CharString index="36">
            rmoveto
            -73 callgsubr
            return
          </CharString>
          <CharString index="37">
            -135 -94 -103 -146 -2 hvcurveto
            41 hlineto
            121 73 92 114 89 56 -64 -101 37 callgsubr
            -29 -165 rlineto
            return
          </CharString>
          <CharString index="38">
            -96 -65 callgsubr
            return
          </CharString>
          <CharString index="39">
            417 callsubr
            87 20 69 97 125 hhcurveto
            98 68 -73 391 callgsubr
            return
          </CharString>
          <CharString index="40">
            1 4 1 5 1 6 rrcurveto
            127 97 47 148 return
          </CharString>
          <CharString index="41">
            -82 -40 62 87 15 hvcurveto
            56 315 rlineto
            265 hlineto
            -55 -315 rlineto
            -87 -15 -60 -62 -84 hhcurveto
            return
          </CharString>
          <CharString index="42">
            -38 callsubr
            70 -27 54 -41 26 rrcurveto
            return
          </CharString>
          <CharString index="43">
            82 -87 123 hhcurveto
            103 73 57 68 38 hvcurveto
            return
          </CharString>
          <CharString index="44">
            -36 callgsubr
            endchar
          </CharString>
          <CharString index="45">
            rmoveto
            126 22 112 84 122 hhcurveto
            127 76 -92 -125 -22 hvcurveto
            -124 -23 -112 -86 -122 hhcurveto
            -125 -78 93 124 23 hvcurveto
            return
          </CharString>
          <CharString index="46">
            rmoveto
            -40 hlineto
            -107 -16 -69 -69 -93 hhcurveto
            -105 -38 75 104 165 callgsubr
            119 hlineto
            133 113 68 135 25 hvcurveto
            return
          </CharString>
          <CharString index="47">
            -91 callgsubr
            417 callsubr
            return
          </CharString>
          <CharString index="48">
            rmoveto
            104 18 81 67 103 hhcurveto
            104 56 -67 -104 -18 hvcurveto
            -102 -18 -80 -67 -104 hhcurveto
            -104 -56 67 102 18 hvcurveto
            return
          </CharString>
          <CharString index="49">
            594 callgsubr
            14 15 1 3 13 hvcurveto
            -216 -170 rlineto
            47 hlineto
            258 204 26 16 22 21 14 24 rlinecurve
            406 callsubr
            -11 -63 -36 -42 -42 -26 -2 1 rcurveline
            -8 -6 rlineto
            -18 -33 -37 -8 -31 hhcurveto
            -114 -64 79 116 20 hvcurveto
            133 24 115 62 123 474 callgsubr
            29 163 rlineto
            endchar
          </CharString>
          <CharString index="50">
            -40 callgsubr
            -36 return
          </CharString>
          <CharString index="51">
            hlineto
            -170 -129 -76 -173 -31 hvcurveto
            -98 callgsubr
            return
          </CharString>
          <CharString index="52">
            hhcurveto
            83 65 42 64 39 hvcurveto
            -57 -325 -74 callsubr
          </CharString>
          <CharString index="53">
            109 hhcurveto
            54 hlineto
            6 34 rlineto
            -59 hlineto
            -107 -47 57 85 16 hvcurveto
            return
          </CharString>
          <CharString index="54">
            -24 callgsubr
            7 35 rlineto
            return
          </CharString>
          <CharString index="55">
            448 -45 callgsubr
            return
          </CharString>
          <CharString index="56">
            6 callgsubr
            -76 callgsubr
            return
          </CharString>
          <CharString index="57">
            -23 callsubr
            22 hvcurveto
            return
          </CharString>
          <CharString index="58">
            -58 callgsubr
            -48 return
          </CharString>
          <CharString index="59">
            705 -92 callsubr
            return
          </CharString>
          <CharString index="60">
            122 71 93 callsubr
            return
          </CharString>
          <CharString index="61">
            48 callgsubr
            -426 35 -74 callgsubr
            295 149 54 callsubr
            endchar
          </CharString>
          <CharString index="62">
            -92 callgsubr
            endchar
          </CharString>
          <CharString index="63">
            83 15 71 69 131 hhcurveto
            23 602 callgsubr
            -23 hlineto
            -115 -37 50 93 16 hvcurveto
            22 123 rlineto
            422 604 callsubr
            -75 -6 -81 -46 -20 -113 rlinecurve
            215 callgsubr
            return
          </CharString>
          <CharString index="64">
            -116 30 callgsubr
            347 hlineto
            -51 -291 rlineto
            95 callgsubr
            return
          </CharString>
          <CharString index="65">
            rmoveto
            -112 62 callgsubr
            return
          </CharString>
          <CharString index="66">
            -6 -23 callgsubr
            return
          </CharString>
          <CharString index="67">
            -14 8 -17 6 -20 3 rrcurveto
            1 vlineto
            92 17 54 63 14 77 rrcurveto
            107 18 -70 68 -109 hhcurveto
            -114 -98 -66 568 callgsubr
            39 hlineto
            89 14 83 53 89 hhcurveto
            84 61 -53 -93 -16 hvcurveto
            return
          </CharString>
          <CharString index="68">
            rmoveto
            -143 -82 -115 82 -7 -38 115 -82 299 callgsubr
          </CharString>
          <CharString index="69">
            394 callsubr
            13 return
          </CharString>
          <CharString index="70">
            hlineto
            -41 callsubr
            return
          </CharString>
          <CharString index="71">
            -107 callsubr
            418 hlineto
            -19 -105 rlineto
            return
          </CharString>
          <CharString index="72">
            -26 callgsubr
            75 -93 129 hhcurveto
            return
          </CharString>
          <CharString index="73">
            hlineto
            -24 callgsubr
            return
          </CharString>
          <CharString index="74">
            36 hlineto
            -6 37 -1 35 6 30 rrcurveto
            103 18 78 34 58 hhcurveto
            67 62 -54 -120 -22 hvcurveto
            return
          </CharString>
          <CharString index="75">
            57 callgsubr
            110 95 callsubr
            return
          </CharString>
          <CharString index="76">
            50 -52 callgsubr
            return
          </CharString>
          <CharString index="77">
            21 118 -45 93 -103 12 27 152 rcurveline
            277 8 callgsubr
            return
          </CharString>
          <CharString index="78">
            122 22 -97 44 -101 hhcurveto
            -44 hlineto
            -70 -60 26 78 13 hvcurveto
            return
          </CharString>
          <CharString index="79">
            rmoveto
            -43 callsubr
            return
          </CharString>
          <CharString index="80">
            hhcurveto
            -138 -120 -93 -147 -26 hvcurveto
            -145 -24 97 -90 135 hhcurveto
            return
          </CharString>
          <CharString index="81">
            -84 -34 -56 -74 -15 -85 -49 callgsubr
            return
          </CharString>
          <CharString index="82">
            rmoveto
            85 14 77 48 73 hhcurveto
            76 57 -49 -84 -14 hvcurveto
            -13 -73 -54 -43 -64 -35 -100 3 -68 54 16 94 rrcurveto
            178 -631 rmoveto
            45 256 rlineto
            -36 hlineto
            154 callgsubr
            return
          </CharString>
          <CharString index="83">
            rmoveto
            -32 callsubr
            return
          </CharString>
          <CharString index="84">
            37 callsubr
            129 return
          </CharString>
          <CharString index="85">
            369 callgsubr
            229 414 callgsubr
            -328 307 callgsubr
            rrcurveto
            440 105 -92 callsubr
            return
          </CharString>
          <CharString index="86">
            59 13 callgsubr
            return
          </CharString>
          <CharString index="87">
            164 rmoveto
            -106 callsubr
            return
          </CharString>
          <CharString index="88">
            -37 callsubr
            40 hlineto
            return
          </CharString>
          <CharString index="89">
            205 callgsubr
            23 4 -14 16 -21 hhcurveto
            -22 -20 -16 -23 -4 hvcurveto
            206 callgsubr
            return
          </CharString>
          <CharString index="90">
            -106 -19 68 -76 111 -12 callgsubr
            return
          </CharString>
          <CharString index="91">
            198 callsubr
            96 callsubr
            return
          </CharString>
          <CharString index="92">
            rlineto
            -152 -19 callsubr
            4 callgsubr
            -152 hlineto
            return
          </CharString>
          <CharString index="93">
            -59 callsubr
            442 351 14 callgsubr
            -839 12 callsubr
            -135 -23 -80 -27 -73 hhcurveto
            -40 hlineto
            -31 -172 rlineto
            return
          </CharString>
          <CharString index="94">
            123 -5 callsubr
            return
          </CharString>
          <CharString index="95">
            6 34 rlineto
            -23 hlineto
            -143 return
          </CharString>
          <CharString index="96">
            rlineto
            41 -45 callsubr
          </CharString>
          <CharString index="97">
            rmoveto
            141 48 -110 -97 -18 hvcurveto
            -7 -44 -24 -50 -38 -39 -257 286 rcurveline
            35 254 callsubr
            return
          </CharString>
          <CharString index="98">
            39 -34 callsubr
            return
          </CharString>
          <CharString index="99">
            -92 -52 182 callsubr
            return
          </CharString>
          <CharString index="100">
            -54 callsubr
            71 return
          </CharString>
          <CharString index="101">
            -71 callgsubr
            -246 rlineto
            return
          </CharString>
          <CharString index="102">
            705 61 callgsubr
            return
          </CharString>
          <CharString index="103">
            rmoveto
            -116 -46 78 128 22 hvcurveto
            43 245 rlineto
            347 hlineto
            -51 -292 rlineto
            149 callgsubr
            return
          </CharString>
          <CharString index="104">
            81 77 callgsubr
            return
          </CharString>
          <CharString index="105">
            254 rmoveto
            40 callgsubr
            return
          </CharString>
          <CharString index="106">
            101 702 rmoveto
            149 -418 -50 -284 rlineto
            45 hlineto
            50 284 296 418 rlineto
            -52 hlineto
            -259 -375 -127 375 rlineto
            return
          </CharString>
          <CharString index="107">
            hhcurveto
            86 67 41 63 40 hvcurveto
            -57 -323 132 callgsubr
          </CharString>
          <CharString index="108">
            hlineto
            -119 118 callsubr
            return
          </CharString>
          <CharString index="109">
            rmoveto
            -59 -10 37 -36 51 hhcurveto
            53 49 36 59 10 hvcurveto
            60 11 -36 36 -53 hhcurveto
            -52 -49 -36 -60 -11 hvcurveto
            160 1 rmoveto
            -41 -7 -33 -26 -37 hhcurveto
            -36 -24 26 41 7 hvcurveto
            41 8 32 25 36 hhcurveto
            38 24 -25 -41 -8 hvcurveto
            return
          </CharString>
          <CharString index="110">
            56 75 hhcurveto
            83 38 -56 -91 -25 hvcurveto
            34 hlineto
            return
          </CharString>
          <CharString index="111">
            -58 -11 127 callsubr
            81 callgsubr
            return
          </CharString>
          <CharString index="112">
            hlineto
            12 callgsubr
            return
          </CharString>
          <CharString index="113">
            708 -69 rmoveto
            -80 -41 57 95 14 hvcurveto
            3 19 rlineto
            133 21 -69 86 -107 hhcurveto
            -105 -71 -60 -71 -38 hvcurveto
            46 261 rlineto
            925 307 callsubr
            -273 321 callsubr
            -89 -16 -63 -63 -81 hhcurveto
            689 520 -92 callsubr
            -1651 -79 callsubr
            61 345 rlineto
            87 15 70 108 131 hhcurveto
            86 61 -70 -117 -16 hvcurveto
            -1 hlineto
            -3 -20 -17 -107 56 -76 102 -1 rlinecurve
            109 -1 77 79 19 111 24 132 rcurveline
            233 524 callgsubr
          </CharString>
          <CharString index="114">
            465 18 callgsubr
            40 hlineto
            138 25 -82 88 -117 hhcurveto
            -103 -69 -57 -70 -38 hvcurveto
            161 callgsubr
            402 8 callgsubr
            -964 569 callsubr
            -94 callgsubr
            return
          </CharString>
          <CharString index="115">
            127 22 hvcurveto
            return
          </CharString>
          <CharString index="116">
            rrcurveto
            -115 -20 61 -101 147 hhcurveto
            129 80 81 71 27 hvcurveto
            -39 hlineto
            -54 -25 -67 -63 -102 hhcurveto
            -123 -47 620 callgsubr
            return
          </CharString>
          <CharString index="117">
            rmoveto
            -51 callsubr
            return
          </CharString>
          <CharString index="118">
            -2 -14 -1 -15 -14 vvcurveto
            40 hlineto
            15 1 14 2 13 vhcurveto
            return
          </CharString>
          <CharString index="119">
            -107 callsubr
            314 hlineto
            323 callsubr
            return
          </CharString>
          <CharString index="120">
            121 callsubr
            115 84 74 83 44 hvcurveto
            -33 callgsubr
          </CharString>
          <CharString index="121">
            446 320 rmoveto
            -103 -70 -59 -70 -38 hvcurveto
            46 260 rlineto
            336 256 callgsubr
            46 -26 -47 27 -62 hhcurveto
            298 -320 -71 callsubr
            -1794 -79 callsubr
            60 339 rlineto
            -1 vlineto
            93 16 74 109 127 hhcurveto
            77 49 -49 -80 7 hvcurveto
            -119 -7 54 -73 117 107 callsubr
            return
          </CharString>
          <CharString index="122">
            151 417 callgsubr
            35 240 32 289 35 -27 36 hstemhm
            87 40 -25 25 9 38 282 39 hintmask 1111010010000000
            564 hmoveto
            125 315 callgsubr
            -68 -384 rlineto
            -126 -22 -115 -86 -120 hhcurveto
            -151 -75 94 146 31 hvcurveto
            78 hlineto
            130 124 47 144 26 hvcurveto
            hintmask 1110110110000000
            98 18 -56 76 -108 hhcurveto
            -128 -81 -97 -129 -1 hvcurveto
            38 hlineto
            108 -1 63 82 106 hhcurveto
            86 39 -61 -76 -14 hvcurveto
            -133 -23 -123 -27 -101 hhcurveto
            hintmask 1111001010000000
            -104 hlineto
            -4 -15 -3 -13 -3 -14 rrcurveto
            hintmask 1111010010000000
            -160 -29 92 -105 164 hhcurveto
            return
          </CharString>
          <CharString index="123" raw="1">
            1f9ae2f7 3e1d0b  
          </CharString>
          <CharString index="124">
            438 callsubr
            124 43 -93 -102 -18 hvcurveto
            -106 -18 -77 -92 -124 hhcurveto
            -107 -40 66 59 -5 hvcurveto
            -39 hlineto
            -76 3 51 -85 133 hhcurveto
            return
          </CharString>
          <CharString index="125">
            498 hmoveto
            49 hlineto
            -136 686 rlineto
            -50 hlineto
            -379 -686 rlineto
            49 hlineto
            return
          </CharString>
          <CharString index="126">
            hhcurveto
            120 476 callgsubr
            152 hlineto
            6 35 rlineto
            -696 370 callgsubr
            232 294 callgsubr
            -137 -24 -93 -38 -104 hhcurveto
            -179 hlineto
            return
          </CharString>
          <CharString index="127">
            -18 -6 40 318 39 290 39 hstemhm
            38 44 377 43 5 45 hintmask 11101000
            107 525 rmoveto
            45 hlineto
            108 32 90 48 94 hhcurveto
            hintmask 11100100
            105 46 -59 -83 -15 hvcurveto
            -16 -94 -79 -53 -156 -1 rrcurveto
            -21 hlineto
            -7 -39 rlineto
            19 hlineto
            hintmask 11111000
            151 81 -52 460 callsubr
            -86 -15 -68 -68 -119 hhcurveto
            -117 -56 72 95 1 hvcurveto
            -44 hlineto
            -133 -5 81 -74 133 hhcurveto
            150 83 86 105 19 hvcurveto
            19 109 -62 61 -95 15 rrcurveto
            6 vlineto
            117 13 57 76 14 77 rrcurveto
            hintmask 11100100
            100 17 -57 78 -133 hhcurveto
            hintmask 11101000
            -136 -100 -74 -121 -33 hvcurveto
            endchar
          </CharString>
          <CharString index="128">
            23 -5 38 400 39 211 38 hstemhm
            70 41 403 44 -22 42 hintmask 11110100
            536 532 rmoveto
            42 hlineto
            109 6 -53 80 -129 hhcurveto
            -185 -93 -145 -226 -40 hvcurveto
            -192 -34 15 -163 216 hhcurveto
            164 87 113 121 21 hvcurveto
            hintmask 11111000
            151 26 -69 92 -144 hhcurveto
            -106 -102 -56 -94 -38 hvcurveto
            264 38 98 97 139 hhcurveto
            hintmask 11110100
            100 43 -57 -94 -2 hvcurveto
            hintmask 11111000
            -184 -99 rmoveto
            121 59 -73 -132 -23 hvcurveto
            -122 -22 -88 -73 -113 hhcurveto
            -148 -42 105 107 19 hvcurveto
            129 22 118 59 97 hhcurveto
            endchar
          </CharString>
          <CharString index="129">
            rmoveto
            26 144 rlineto
            148 309 callgsubr
            -651 151 callsubr
            -69 47 -42 42 -15 -86 -35 -57 -80 -16 -89 rrcurveto
            -121 -22 61 -108 149 hhcurveto
            124 84 80 71 27 hvcurveto
            -37 hlineto
            -53 -25 -68 -63 -103 hhcurveto
            -123 -47 88 104 18 hvcurveto
            102 19 81 90 116 hhcurveto
            78 44 -39 -39 17 hvcurveto
            -156 -129 rlineto
            43 hlineto
            151 127 rlineto
            58 -13 -59 55 -102 hhcurveto
            -19 -18 -2 -4 -18 hvcurveto
            -51 592 callgsubr
            14 67 25 69 hhcurveto
            189 hlineto
            endchar
          </CharString>
          <CharString index="130">
            64 callsubr
            7 36 rlineto
            -1 -11 -9 -1 -10 hhcurveto
            -48 callgsubr
            618 callsubr
            107 hhcurveto
            103 217 callgsubr
            -25 198 callsubr
            return
          </CharString>
          <CharString index="131">
            -412 rmoveto
            -114 -83 -85 callgsubr
            -52 -22 -63 hhcurveto
            return
          </CharString>
          <CharString index="132">
            451 callsubr
            110 77 57 71 41 hvcurveto
            -43 -243 288 callsubr
            378 callgsubr
            -652 -107 callsubr
            461 hlineto
            524 callsubr
            74 -16 -59 58 -114 hhcurveto
            -96 -88 -48 -83 -49 hvcurveto
            -181 512 callgsubr
            return
          </CharString>
          <CharString index="133">
            239 callgsubr
            -1 -11 rlineto
            -34 -7 -15 -20 -32 543 callgsubr
            35 22 74 14 436 callgsubr
            return
          </CharString>
          <CharString index="134">
            26 142 -89 102 -133 9 27 150 rcurveline
            352 8 callgsubr
            return
          </CharString>
          <CharString index="135">
            492 hmoveto
            96 543 rlineto
            -45 hlineto
            -52 -294 rlineto
            3 vlineto
            return
          </CharString>
          <CharString index="136">
            97 callsubr
            38 hlineto
            return
          </CharString>
          <CharString index="137">
            116 33 180 249 callsubr
            279 37 338 14 vstem
            733 hmoveto
            -53 callsubr
            -982 hlineto
            -6 -35 rlineto
            314 313 callgsubr
            -40 hlineto
            -31 -172 rlineto
            return
          </CharString>
          <CharString index="138">
            411 hmoveto
            112 20 86 79 111 hhcurveto
            107 64 -75 -116 -20 hvcurveto
            -110 -19 -93 -75 -106 hhcurveto
            -110 -60 78 107 20 hvcurveto
            return
          </CharString>
          <CharString index="139">
            65 callsubr
            hintmask 1110010111000000
            62 callsubr
            return
          </CharString>
          <CharString index="140">
            hhcurveto
            -36 hlineto
            -4 -30 rlineto
            36 hlineto
            97 42 -10 -204 74 hvcurveto
            96 -92 return
          </CharString>
          <CharString index="141">
            rmoveto
            -215 155 callgsubr
            215 hlineto
            return
          </CharString>
          <CharString index="142">
            27 callsubr
            -743 -107 callsubr
            351 hlineto
            -27 -150 -138 -7 -118 -94 -26 -143 rlinecurve
            return
          </CharString>
          <CharString index="143">
            473 callgsubr
            -124 -84 141 callsubr
            return
          </CharString>
          <CharString index="144">
            -17 58 -66 256 callsubr
            return
          </CharString>
          <CharString index="145">
            111 callsubr
            43 hvcurveto
            return
          </CharString>
          <CharString index="146">
            rmoveto
            116 20 92 75 106 hhcurveto
            111 59 -79 460 callsubr
            -107 -19 -87 -78 -110 hhcurveto
            -106 -66 75 110 20 hvcurveto
            return
          </CharString>
          <CharString index="147">
            hlineto
            -27 -152 -108 322 callsubr
            rlinecurve
            return
          </CharString>
          <CharString index="148">
            hhcurveto
            83 65 42 64 39 hvcurveto
            return
          </CharString>
          <CharString index="149">
            69 0 75 -54 -21 628 73 0 -20 hstemhm
            33 626 hintmask 01011000
            659 701 rmoveto
            -45 hlineto
            hintmask 10011000
            -110 -626 -302 626 rlineto
            -45 hlineto
            -124 -701 rlineto
            45 hlineto
            hintmask 01101000
            111 628 301 -628 rlineto
            45 hlineto
            return
          </CharString>
          <CharString index="150">
            -100 -109 -21 hvcurveto
            -1 -9 -15 callsubr
            return
          </CharString>
          <CharString index="151">
            89 15 92 17 66 hhcurveto
            172 hlineto
            6 32 rlineto
            -1 hlineto
            27 147 rlineto
            return
          </CharString>
          <CharString index="152">
            16 70 108 132 hhcurveto
            98 69 -73 return
          </CharString>
          <CharString index="153">
            rmoveto
            -103 -34 callgsubr
            return
          </CharString>
          <CharString index="154">
            -59 callsubr
            -156 -319 10 callsubr
            return
          </CharString>
          <CharString index="155">
            -25 -143 rlineto
            44 hlineto
            97 543 rlineto
            -45 hlineto
            -25 -142 rlineto
            return
          </CharString>
          <CharString index="156">
            55 callgsubr
            331 callgsubr
            hintmask 1100110101000000
            229 callsubr
            hintmask 1110010110000000
            62 callsubr
            40 hlineto
            104 callsubr
            return
          </CharString>
          <CharString index="157">
            726 -122 rmoveto
            -145 -74 115 147 28 hvcurveto
            1 3 0 3 1 3 136 2 93 47 23 134 15 87 rcurveline
            233 hlineto
            -62 -352 rlineto
            -115 -28 -106 -74 -115 52 callgsubr
            return
          </CharString>
          <CharString index="158">
            -107 callsubr
            455 hlineto
            -27 -147 rlineto
            -145 hlineto
            -87 -101 -29 -107 -18 hvcurveto
            return
          </CharString>
          <CharString index="159">
            hhcurveto
            442 104 callgsubr
            return
          </CharString>
          <CharString index="160">
            109 35 240 32 297 344 callgsubr
            hintmask 11110100
            585 346 rmoveto
            -120 -22 -118 -82 -115 hhcurveto
            -148 80 callsubr
            98 17 -55 76 -105 hhcurveto
            hintmask 11111100
            26 callgsubr
            hintmask 11110100
            343 callsubr
            return
          </CharString>
          <CharString index="161">
            120 callgsubr
            32 -93 -78 -14 hvcurveto
            -75 -13 -64 -95 -116 hhcurveto
            return
          </CharString>
          <CharString index="162">
            rmoveto
            -105 -60 77 359 callsubr
            return
          </CharString>
          <CharString index="163">
            -113 -63 58 84 -10 hvcurveto
            -45 hlineto
            -109 7 79 -72 138 hhcurveto
            137 126 95 154 28 hvcurveto
            99 560 rlineto
            -45 hlineto
            -25 -141 rlineto
            return
          </CharString>
          <CharString index="164">
            7 -5 40 397 39 200 40 hstem
            56 44 403 44 vstem
            587 711 rmoveto
            -427 hlineto
            -68 -384 rlineto
            42 hlineto
            64 46 75 41 86 hhcurveto
            125 53 -74 391 callgsubr
            -117 -21 -76 -88 -134 hhcurveto
            -99 -66 54 104 -3 hvcurveto
            -44 hlineto
            -121 -3 76 -77 132 hhcurveto
            169 89 116 359 callsubr
            114 20 -40 116 -169 hhcurveto
            -83 -81 -37 -50 -44 hvcurveto
            51 287 rlineto
            384 hlineto
            endchar
          </CharString>
          <CharString index="165">
            -68 callsubr
            -125 -22 -92 -71 -97 291 callsubr
            -14 hvcurveto
            -6 -34 rlineto
            -3 14 22 -3 21 hhcurveto
            121 104 84 146 26 hvcurveto
            139 25 -82 88 -117 hhcurveto
            -103 -69 -57 -70 -38 hvcurveto
            161 callgsubr
            513 309 callgsubr
            -964 -107 callsubr
            412 hlineto
            524 callsubr
            70 -15 -53 58 -106 hhcurveto
            -122 -109 -86 -140 -25 hvcurveto
            return
          </CharString>
          <CharString index="166">
            130 543 rmoveto
            -97 -543 rlineto
            45 hlineto
            97 543 rlineto
            return
          </CharString>
          <CharString index="167">
            hhcurveto
            -17 hlineto
            -3 -12 -4 -15 -2 -12 return
          </CharString>
          <CharString index="168">
            35 110 callsubr
            return
          </CharString>
          <CharString index="169">
            121 93 76 617 callsubr
            8 47 -8 45 -25 33 212 -1 rcurveline
            -64 -365 rlineto
            return
          </CharString>
          <CharString index="170">
            149 -101 callsubr
            return
          </CharString>
          <CharString index="171">
            143 callgsubr
            -25 62 -105 151 hhcurveto
            11 8 1 1 10 hvcurveto
            return
          </CharString>
          <CharString index="172">
            -99 callsubr
            36 hlineto
            123 30 -83 -72 -13 hvcurveto
            -93 -16 -75 -64 -101 hhcurveto
            -99 -62 66 96 17 hvcurveto
            -39 hlineto
            -118 -21 78 -80 122 hhcurveto
            return
          </CharString>
          <CharString index="173">
            rmoveto
            116 callsubr
            -130 -740 rlineto
            endchar
          </CharString>
          <CharString index="174">
            290 callgsubr
            endchar
          </CharString>
          <CharString index="175">
            -140 -41 -97 -72 -132 hhcurveto
            -96 -76 42 96 17 hvcurveto
            71 13 60 57 -78 callsubr
            return
          </CharString>
          <CharString index="176">
            528 663 rmoveto
            7 39 rlineto
            -411 hlineto
            -8 -41 rlineto
            360 hlineto
            -479 -623 -7 -38 rlineto
            428 hlineto
            8 40 rlineto
            -376 hlineto
            return
          </CharString>
          <CharString index="177">
            188 callgsubr
            -67 70 -29 rrcurveto
            return
          </CharString>
          <CharString index="178">
            -18 -98 55 -52 65 -13 rrcurveto
            -3 vlineto
            return
          </CharString>
          <CharString index="179">
            10 57 26 47 36 35 return
          </CharString>
          <CharString index="180">
            36 217 34 199 35 hstem
            91 42 vstem
            299 -25 rmoveto
            378 328 9 47 -436 -375 rlineto
            498 730 -92 callsubr
            -719 -107 callsubr
            679 -233 rmoveto
            6 34 rlineto
            -294 218 callsubr
            18 99 rlineto
            -41 hlineto
            -18 -99 rlineto
            185 callgsubr
            return
          </CharString>
          <CharString index="181">
            hhcurveto
            68 442 callsubr
            -60 hlineto
            -73 -24 23 82 15 hvcurveto
            64 359 rlineto
            160 hlineto
            7 39 rlineto
            -160 hlineto
            24 138 rlineto
            endchar
          </CharString>
          <CharString index="182">
            -42 callsubr
            122 22 104 74 108 410 callgsubr
            -15 -77 -110 -143 hhcurveto
            return
          </CharString>
          <CharString index="183">
            -133 163 142 13 99 102 24 141 rlinecurve
            278 callsubr
            return
          </CharString>
          <CharString index="184">
            21 -21 705 35 return
          </CharString>
          <CharString index="185">
            hvcurveto
            15 87 rlineto
            160 callgsubr
            return
          </CharString>
          <CharString index="186">
            rmoveto
            -36 hlineto
            -57 -10 -56 -66 -102 hhcurveto
            -104 -31 66 57 10 hvcurveto
            -36 hlineto
            -74 -13 45 -82 128 hhcurveto
            127 64 82 74 14 hvcurveto
            return
          </CharString>
          <CharString index="187">
            -78 90 150 30 hvcurveto
            79 hlineto
            130 124 48 143 25 hvcurveto
            return
          </CharString>
          <CharString index="188">
            511 callsubr
            324 8 callgsubr
            return
          </CharString>
          <CharString index="189">
            473 callgsubr
            -87 -68 -44 -72 -40 vhcurveto
            70 -15 -49 46 -84 114 callsubr
            return
          </CharString>
          <CharString index="190">
            rmoveto
            20 3 -11 14 -20 hhcurveto
            -20 -17 -14 -20 -3 hvcurveto
            -19 -4 12 -14 20 hhcurveto
            19 17 14 19 4 hvcurveto
            110 298 -92 callsubr
            -699 -107 callsubr
            456 hlineto
            475 callsubr
            -146 437 callgsubr
            150 callgsubr
            -29 callgsubr
            return
          </CharString>
          <CharString index="191">
            -28 3 38 637 39 hstem
            501 45 vstem
            7 33 rmoveto
            -5 -30 rlineto
            472 hlineto
            7 38 rlineto
            -399 hlineto
            171 101 256 189 33 185 rrcurveto
            140 25 -85 61 -113 hhcurveto
            -133 -103 -85 -147 -35 hvcurveto
            44 hlineto
            109 27 72 84 121 hhcurveto
            125 25 -78 -86 -15 hvcurveto
            -28 -156 -208 -168 -254 -157 rrcurveto
            endchar
          </CharString>
          <CharString index="192">
            hlineto
            -124 -705 rlineto
            return
          </CharString>
          <CharString index="193">
            7 callgsubr
            -29 -168 rlineto
            return
          </CharString>
          <CharString index="194">
            75 callgsubr
            5 callgsubr
            return
          </CharString>
          <CharString index="195">
            134 24 69 87 105 hhcurveto
            return
          </CharString>
          <CharString index="196">
            106 0 36 628 38 hstem
            624 46 vstem
            354 702 rmoveto
            -196 165 callsubr
            196 hlineto
            240 155 130 220 38 hvcurveto
            220 40 -109 132 -239 hhcurveto
            -117 -666 rmoveto
            -152 hlineto
            111 628 rlineto
            151 hlineto
            217 87 -120 -194 -34 hvcurveto
            -193 -34 -130 -121 -216 hhcurveto
            return
          </CharString>
          <CharString index="197">
            -146 -26 97 -89 129 hhcurveto
            22 20 2 5 19 hvcurveto
            -214 -167 rlineto
            48 hlineto
            187 603 rmoveto
            141 47 -110 -97 -18 hvcurveto
            -7 -44 -24 -50 -38 -39 -257 286 rcurveline
            35 44 56 19 56 hhcurveto
            -71 311 callsubr
          </CharString>
          <CharString index="198">
            1 hlineto
            126 98 55 148 26 78 callsubr
            return
          </CharString>
          <CharString index="199">
            hlineto
            -24 -137 rlineto
            -52 hlineto
            -164 -148 -87 -189 -33 hvcurveto
            return
          </CharString>
          <CharString index="200">
            91 119 17 hvcurveto
            return
          </CharString>
          <CharString index="201">
            40 callsubr
            -2 hlineto
            return
          </CharString>
          <CharString index="202">
            150 callsubr
            -76 hhcurveto
            return
          </CharString>
          <CharString index="203">
            35 221 callsubr
            return
          </CharString>
          <CharString index="204">
            -89 callsubr
            166 callgsubr
            return
          </CharString>
          <CharString index="205">
            -257 286 rcurveline
            -7 callgsubr
            return
          </CharString>
          <CharString index="206">
            2 -120 31 311 18 303 35 127 35 hstemhm
            49 37 1 40 hintmask 10111000
            691 -48 callsubr
            -664 -107 callsubr
            460 581 callgsubr
            -119 -23 hvcurveto
            hintmask 11110100
            -16 -86 48 -69 72 -23 -69 -20 -59 -57 -14 -81 rrcurveto
            hintmask 11111000
            -112 -19 75 -72 98 hhcurveto
            return
          </CharString>
          <CharString index="207">
            29 callsubr
            62 return
          </CharString>
          <CharString index="208">
            255 callsubr
            -122 -24 -109 -79 return
          </CharString>
          <CharString index="209">
            -82 -465 290 callgsubr
            return
          </CharString>
          <CharString index="210">
            hlineto
            -61 callgsubr
            return
          </CharString>
          <CharString index="211">
            125 -70 callgsubr
            return
          </CharString>
          <CharString index="212">
            212 31 36 337 16 -16 35 -17 17 86 32 148 35 hstemhm
            138 169 callgsubr
            39 hintmask 1010111101000000
            902 705 158 callsubr
            rlineto
            hintmask 1001111101000000
            177 callsubr
            hintmask 1100111101000000
            -86 -10 -81 -56 -18 -103 return
          </CharString>
          <CharString index="213">
            537 callgsubr
            -16 hlineto
            -4 -12 -3 -15 -2 -12 -1 -7 -1 -7 -1 -8 rrcurveto
            -148 -25 -108 -96 -132 hhcurveto
            -92 -76 48 90 17 hvcurveto
            return
          </CharString>
          <CharString index="214">
            41 callsubr
            -57 -325 195 callgsubr
            return
          </CharString>
          <CharString index="215">
            -130 -23 56 -88 131 hhcurveto
            return
          </CharString>
          <CharString index="216">
            324 callsubr
            -26 -143 80 -104 131 -22 -198 -168 rcurveline
            49 hlineto
            60 callgsubr
            -134 164 125 8 92 76 19 105 rlinecurve
            94 16 -58 68 -91 hhcurveto
            return
          </CharString>
          <CharString index="217">
            hstemhm
            60 196 callgsubr
            return
          </CharString>
          <CharString index="218">
            12 callsubr
            11 callgsubr
            return
          </CharString>
          <CharString index="219">
            -62 -88 -75 -27 hvcurveto
            -2 hlineto
            36 callsubr
            return
          </CharString>
          <CharString index="220">
            hlineto
            56 320 rlineto
            -37 hlineto
            return
          </CharString>
          <CharString index="221">
            -10 callgsubr
            106 hhcurveto
            104 217 callgsubr
            -25 198 callsubr
            return
          </CharString>
          <CharString index="222">
            rmoveto
            -150 -26 -108 -90 -131 hhcurveto
            -126 -81 93 147 26 hvcurveto
            145 26 114 94 126 hhcurveto
            131 76 -89 -150 -27 hvcurveto
            endchar
          </CharString>
          <CharString index="223">
            124 315 callgsubr
            return
          </CharString>
          <CharString index="224">
            76 14 63 62 128 hhcurveto
            54 hlineto
            6 34 rlineto
            -52 hlineto
            return
          </CharString>
          <CharString index="225">
            -91 -70 379 callsubr
            return
          </CharString>
          <CharString index="226">
            232 117 callgsubr
            return
          </CharString>
          <CharString index="227">
            151 -1 91 103 24 136 return
          </CharString>
          <CharString index="228">
            -14 callsubr
            -139 -25 82 -86 141 hhcurveto
            return
          </CharString>
          <CharString index="229">
            rmoveto
            -68 callsubr
            return
          </CharString>
          <CharString index="230">
            -78 -126 -22 hvcurveto
            -16 -92 return
          </CharString>
          <CharString index="231">
            232 255 callsubr
            return
          </CharString>
          <CharString index="232">
            1490 -48 callsubr
            -1463 -107 callsubr
            1272 307 callsubr
            -273 58 callgsubr
            380 callgsubr
            -302 58 callgsubr
            return
          </CharString>
          <CharString index="233">
            -34 callsubr
            6 35 rlineto
            return
          </CharString>
          <CharString index="234">
            43 -25 54 hhcurveto
            22 25 5 8 23 hvcurveto
            return
          </CharString>
          <CharString index="235">
            -106 callgsubr
            225 callsubr
            return
          </CharString>
          <CharString index="236">
            -29 -164 rlineto
            36 hlineto
            100 564 rlineto
            -35 hlineto
            -104 -19 -106 -41 -72 hhcurveto
            hintmask 11110100
            -89 -64 67 90 18 hvcurveto
            95 18 88 51 123 hhcurveto
            140 595 callsubr
            -309 -794 rmoveto
            hintmask 10111000
            -84 -62 56 97 17 hvcurveto
            6 33 14 28 21 23 227 -170 rcurveline
            return
          </CharString>
          <CharString index="237">
            -78 callgsubr
            13 69 -29 46 -45 23 243 -1 rcurveline
            return
          </CharString>
          <CharString index="238">
            304 callsubr
            -123 439 callsubr
          </CharString>
          <CharString index="239">
            36 452 35 hstem
            105 39 vstem
            291 253 55 callsubr
            289 callsubr
            -50 -24 -56 -66 -104 hhcurveto
            282 452 14 callgsubr
            -547 -26 callgsubr
            75 -93 132 hhcurveto
            return
          </CharString>
          <CharString index="240">
            201 callsubr
            135 111 68 135 25 hvcurveto
            return
          </CharString>
          <CharString index="241">
            -163 -29 107 -111 163 hhcurveto
            136 103 78 603 callgsubr
            94 16 -58 68 -91 hhcurveto
            return
          </CharString>
          <CharString index="242">
            -2 hlineto
            77 -11 -53 74 -119 hhcurveto
            -126 -109 -89 -137 -24 hvcurveto
            return
          </CharString>
          <CharString index="243">
            59 148 callsubr
            return
          </CharString>
          <CharString index="244">
            186 callsubr
            19 105 rlineto
            return
          </CharString>
          <CharString index="245">
            41 126 callsubr
            return
          </CharString>
          <CharString index="246">
            -63 384 callsubr
            return
          </CharString>
          <CharString index="247">
            rmoveto
            -42 hlineto
            -92 -122 rlineto
            34 hlineto
            -33 122 rmoveto
            -43 hlineto
            -84 -122 rlineto
            34 hlineto
            endchar
          </CharString>
          <CharString index="248">
            -89 -133 -23 vhcurveto
            return
          </CharString>
          <CharString index="249">
            -12 callsubr
            -67 114 callgsubr
            496 callgsubr
            return
          </CharString>
          <CharString index="250">
            rlinecurve
            152 callgsubr
            return
          </CharString>
          <CharString index="251">
            705 14 callgsubr
            return
          </CharString>
          <CharString index="252">
            75 -8 40 -11 -21 511 39 -7 -20 return
          </CharString>
          <CharString index="253">
            -31 callgsubr
            -113 hlineto
            return
          </CharString>
          <CharString index="254">
            374 callgsubr
            -115 -39 51 92 16 hvcurveto
            17 92 rlineto
            404 hlineto
            -60 -343 rlineto
            -127 -23 -118 -88 -127 hhcurveto
            520 558 -92 callsubr
            return
          </CharString>
          <CharString index="255">
            90 hhcurveto
            87 53 -60 204 callgsubr
            return
          </CharString>
          <CharString index="256">
            -135 -25 62 -105 151 hhcurveto
            11 8 1 1 10 hvcurveto
            return
          </CharString>
          <CharString index="257">
            245 callgsubr
            -57 -57 return
          </CharString>
          <CharString index="258">
            -107 callsubr
            462 hlineto
            -25 285 callgsubr
            return
          </CharString>
          <CharString index="259">
            304 callgsubr
            -18 -56 return
          </CharString>
          <CharString index="260">
            -19 hvcurveto
            250 callgsubr
            return
          </CharString>
          <CharString index="261">
            rlineto
            -45 hlineto
            -97 -543 rlineto
            45 hlineto
            return
          </CharString>
          <CharString index="262">
            22 127 -67 85 -110 12 25 141 rcurveline
            306 309 callgsubr
            -1083 -107 callsubr
            737 hlineto
            -25 -139 -113 -4 -73 -72 -35 -75 rlinecurve
            135 callsubr
            return
          </CharString>
          <CharString index="263">
            -50 -24 -57 -66 -103 hhcurveto
            654 452 rmoveto
            -31 callgsubr
            189 callgsubr
            -106 -95 -64 -109 -41 hvcurveto
            -292 303 rlineto
            667 231 callgsubr
            return
          </CharString>
          <CharString index="264">
            -92 callsubr
            -643 129 callgsubr
            -29 callgsubr
            return
          </CharString>
          <CharString index="265">
            rmoveto
            5 35 rlineto
            -877 hlineto
            -5 -35 rlineto
            140 548 callgsubr
            return
          </CharString>
          <CharString index="266">
            -18 -105 51 -44 68 -9 -1 -2 rcurveline
            -79 -8 -79 -55 -17 -93 rrcurveto
            return
          </CharString>
          <CharString index="267">
            122 21 -36 78 -106 hhcurveto
            return
          </CharString>
          <CharString index="268">
            -121 -20 -83 -60 -118 hhcurveto
            -108 hlineto
            -34 -198 rlineto
            -128 -22 56 -87 124 hhcurveto
            114 72 79 120 23 hvcurveto
            3 1 4 1 5 vhcurveto
            -39 hlineto
            -3 -13 rlineto
            -97 -17 -60 -65 -90 hhcurveto
            -98 -40 72 104 18 hvcurveto
            return
          </CharString>
          <CharString index="269">
            156 581 rmoveto
            -7 -38 rlineto
            -81 hlineto
            -7 -40 rlineto
            81 hlineto
            -88 -503 rlineto
            45 hlineto
            89 503 rlineto
            141 442 callsubr
            -141 hlineto
            7 38 rlineto
            88 15 40 40 106 hhcurveto
            7 40 rlineto
            -134 -60 -57 568 callgsubr
            return
          </CharString>
          <CharString index="270">
            rrcurveto
            -142 -26 125 -78 177 hhcurveto
            213 177 119 201 36 hvcurveto
            return
          </CharString>
          <CharString index="271">
            36 254 callsubr
            return
          </CharString>
          <CharString index="272">
            hlineto
            119 callgsubr
            return
          </CharString>
          <CharString index="273">
            129 22 hvcurveto
            return
          </CharString>
          <CharString index="274">
            -12 -164 rmoveto
            -105 callgsubr
            return
          </CharString>
          <CharString index="275">
            hvcurveto
            237 callsubr
            return
          </CharString>
          <CharString index="276">
            256 callgsubr
            -161 hlineto
            return
          </CharString>
          <CharString index="277">
            94 hmoveto
            4 callgsubr
            -153 hlineto
            218 -94 -46 12 -118 318 callgsubr
            return
          </CharString>
          <CharString index="278">
            852 156 rmoveto
            3 1 4 1 5 vhcurveto
            -40 hlineto
            -2 -12 rlineto
            -98 -18 -67 -66 -91 hhcurveto
            -107 -36 77 102 165 callgsubr
            119 hlineto
            135 113 71 136 24 hvcurveto
            129 23 -67 74 -118 hhcurveto
            return
          </CharString>
          <CharString index="279">
            354 callsubr
            175 callsubr
            -326 -638 rmoveto
            139 callgsubr
            return
          </CharString>
          <CharString index="280">
            -172 -31 80 -131 162 hhcurveto
            121 476 callgsubr
            return
          </CharString>
          <CharString index="281">
            -146 -26 96 -90 132 hhcurveto
            110 80 60 72 41 hvcurveto
            return
          </CharString>
          <CharString index="282">
            22 132 -61 65 -81 8 26 149 rcurveline
            return
          </CharString>
          <CharString index="283">
            214 callgsubr
            hstemhm
            return
          </CharString>
          <CharString index="284">
            -19 -104 52 -45 67 -9 rrcurveto
            -2 vlineto
            return
          </CharString>
          <CharString index="285">
            41 103 callsubr
            return
          </CharString>
          <CharString index="286">
            hvcurveto
            308 callsubr
            return
          </CharString>
          <CharString index="287">
            155 hhcurveto
            25 hlineto
            return
          </CharString>
          <CharString index="288">
            75 56 32 41 37 hvcurveto
            -138 -16 98 -96 143 -81 callgsubr
            return
          </CharString>
          <CharString index="289">
            60 85 16 hvcurveto
            return
          </CharString>
          <CharString index="290">
            747 574 rmoveto
            -98 -68 -57 -70 -37 544 callgsubr
            617 hlineto
            146 callsubr
            -52 -47 -16 -28 -36 hvcurveto
            107 -1 -64 63 -101 hhcurveto
            -480 613 callgsubr
            return
          </CharString>
          <CharString index="291">
            rmoveto
            60 callgsubr
            -146 179 rlineto
            -54 hlineto
            -211 -179 rlineto
            endchar
          </CharString>
          <CharString index="292">
            148 26 100 46 94 hhcurveto
            14 hlineto
            9 47 rlineto
            -106 -75 -47 -81 -42 hvcurveto
            return
          </CharString>
          <CharString index="293">
            -80 -17 -70 -105 -132 hhcurveto
            979 448 rmoveto
            return
          </CharString>
          <CharString index="294">
            -719 -258 46 callsubr
            return
          </CharString>
          <CharString index="295">
            25 -9 39 -9 482 callsubr
            return
          </CharString>
          <CharString index="296">
            88 17 86 17 69 hhcurveto
            return
          </CharString>
          <CharString index="297">
            rmoveto
            -115 -34 -8 callgsubr
            845 94 callsubr
            473 callgsubr
            -109 -78 -69 -107 -33 vhcurveto
            -70 -28 -58 -54 -88 hhcurveto
            return
          </CharString>
          <CharString index="298">
            rmoveto
            -7 -37 rlineto
            200 hlineto
            -117 -665 rlineto
            45 hlineto
            117 665 rlineto
            200 354 callgsubr
            return
          </CharString>
          <CharString index="299">
            288 callgsubr
            728 41 -5 39 return
          </CharString>
          <CharString index="300">
            hhcurveto
            16 16 1 3 15 hvcurveto
            return
          </CharString>
          <CharString index="301">
            31 120 35 hstemhm
            71 36 return
          </CharString>
          <CharString index="302">
            hhcurveto
            112 hlineto
            return
          </CharString>
          <CharString index="303">
            241 callgsubr
            284 hlineto
            -70 -397 rlineto
            39 hlineto
            124 -5 callsubr
            -190 hlineto
            -55 -311 rlineto
            -237 538 callsubr
            return
          </CharString>
          <CharString index="304">
            -104 -56 67 102 18 hvcurveto
            -156 -319 10 callsubr
            882 169 callsubr
            return
          </CharString>
          <CharString index="305">
            hvcurveto
            -1 -11 rlineto
            return
          </CharString>
          <CharString index="306">
            -122 -24 -109 -79 -119 52 callgsubr
            -1350 -107 callsubr
            885 294 callgsubr
            235 callsubr
            return
          </CharString>
          <CharString index="307">
            125 315 callgsubr
            -51 -292 rlineto
            -188 512 callgsubr
            return
          </CharString>
          <CharString index="308">
            203 rmoveto
            -40 hlineto
            -107 -16 -69 -69 -93 hhcurveto
            -105 -38 75 104 165 callgsubr
            119 hlineto
            return
          </CharString>
          <CharString index="309">
            -101 13 77 -57 106 262 callsubr
            42 hvcurveto
            462 callsubr
            return
          </CharString>
          <CharString index="310">
            605 callsubr
            60 90 hhcurveto
            87 53 return
          </CharString>
          <CharString index="311">
            -70 -39 -71 -61 -98 hhcurveto
            return
          </CharString>
          <CharString index="312">
            35 -35 36 -36 222 return
          </CharString>
          <CharString index="313">
            416 callgsubr
            -42 hlineto
            return
          </CharString>
          <CharString index="314">
            244 callgsubr
            131 740 rlineto
            endchar
          </CharString>
          <CharString index="315">
            42 79 hhcurveto
            113 hlineto
            -14 -78 rlineto
            -101 -18 616 callsubr
            189 160 rmoveto
            13 76 rlineto
            return
          </CharString>
          <CharString index="316">
            475 callsubr
            -139 437 callgsubr
            return
          </CharString>
          <CharString index="317">
            331 0 66 565 71 0 -20 hstemhm
            106 868 return
          </CharString>
          <CharString index="318">
            rmoveto
            26 144 rlineto
            149 8 callgsubr
            return
          </CharString>
          <CharString index="319">
            hhcurveto
            101 69 322 callgsubr
            return
          </CharString>
          <CharString index="320">
            37 209 288 -300 rlineto
            return
          </CharString>
          <CharString index="321">
            465 291 callgsubr
            return
          </CharString>
          <CharString index="322">
            39 224 35 222 38 return
          </CharString>
          <CharString index="323">
            hhcurveto
            -102 -39 183 callgsubr
            return
          </CharString>
          <CharString index="324">
            153 34 254 35 229 35 hstem
            40 38 vstem
            185 187 rmoveto
            -73 -45 51 76 14 hvcurveto
            78 14 65 49 80 hhcurveto
            113 hlineto
            -17 -96 rlineto
            -100 -18 -56 -58 -77 hhcurveto
            return
          </CharString>
          <CharString index="325">
            hlineto
            -17 -99 rlineto
            -89 -15 -64 -63 -84 hhcurveto
            -82 -38 63 89 16 hvcurveto
            return
          </CharString>
          <CharString index="326">
            140 31 90 66 108 hhcurveto
            110 60 -68 -132 -23 hvcurveto
            return
          </CharString>
          <CharString index="327">
            -1 11 14 -1 11 hhcurveto
            return
          </CharString>
          <CharString index="328">
            hlineto
            2 11 rlineto
            return
          </CharString>
          <CharString index="329">
            hhcurveto
            -119 -77 -74 -77 -36 hvcurveto
            279 callsubr
            return
          </CharString>
          <CharString index="330">
            rmoveto
            -132 -116 -53 -113 -56 hvcurveto
            -295 305 rlineto
            666 hlineto
            416 callgsubr
            return
          </CharString>
          <CharString index="331">
            -107 callsubr
            461 92 callsubr
            return
          </CharString>
          <CharString index="332">
            30 174 rlineto
            return
          </CharString>
          <CharString index="333">
            -90 -33 -89 -57 -109 hhcurveto
            -108 -95 71 153 22 hvcurveto
            473 hlineto
            6 18 3 12 5 24 rrcurveto
            124 22 -69 117 -162 hhcurveto
            -103 -99 -51 -105 -53 hvcurveto
            return
          </CharString>
          <CharString index="334">
            701 114 -42 callsubr
            122 22 103 74 108 hhcurveto
            137 42 -97 -90 -11 hvcurveto
            -4 -22 rlineto
            -85 -20 -75 -102 -138 hhcurveto
            endchar
          </CharString>
          <CharString index="335">
            -9 36 -6 -21 return
          </CharString>
          <CharString index="336">
            264 433 rmoveto
            65 callsubr
            return
          </CharString>
          <CharString index="337">
            -81 21 -21 671 39 hstem
            88 467 vstem
            555 710 rmoveto
            -460 hlineto
            -7 -39 rlineto
            416 hlineto
            -405 -671 rlineto
            50 hlineto
            399 674 rlineto
            endchar
          </CharString>
          <CharString index="338">
            29 callsubr
            63 return
          </CharString>
          <CharString index="339">
            -89 -16 -62 -63 -85 hhcurveto
            -81 -40 63 88 15 hvcurveto
            1 vlineto
            1 3 0 4 1 3 rrcurveto
            return
          </CharString>
          <CharString index="340">
            rmoveto
            -24 -138 rlineto
            -82 hlineto
            -7 -39 rlineto
            82 hlineto
            -64 -359 return
          </CharString>
          <CharString index="341">
            564 callgsubr
            387 103 callgsubr
            return
          </CharString>
          <CharString index="342">
            -117 -20 -91 -33 -110 hhcurveto
            -262 hlineto
            -24 -136 rlineto
            return
          </CharString>
          <CharString index="343">
            -34 -196 rlineto
            339 callsubr
            return
          </CharString>
          <CharString index="344">
            -277 -296 46 callsubr
            return
          </CharString>
          <CharString index="345">
            564 callsubr
            -16 -59 58 -113 hhcurveto
            return
          </CharString>
          <CharString index="346">
            380 callgsubr
            -40 441 callsubr
            return
          </CharString>
          <CharString index="347">
            509 callsubr
            84 -186 rlineto
            return
          </CharString>
          <CharString index="348">
            148 127 98 147 27 hvcurveto
            return
          </CharString>
          <CharString index="349">
            124 callgsubr
            endchar
          </CharString>
          <CharString index="350">
            99 180 rlineto
            333 hlineto
            return
          </CharString>
          <CharString index="351">
            415 callsubr
            64 40 return
          </CharString>
          <CharString index="352">
            -144 rlineto
            -159 hlineto
            return
          </CharString>
          <CharString index="353">
            -76 92 152 return
          </CharString>
          <CharString index="354">
            293 callsubr
            206 hlineto
            -80 -30 -70 -71 -21 -122 rrcurveto
            -154 -26 92 -88 152 hhcurveto
            26 hlineto
            6 34 rlineto
            -22 hlineto
            -138 -71 75 131 22 hvcurveto
            return
          </CharString>
          <CharString index="355">
            203 callsubr
            -61 return
          </CharString>
          <CharString index="356">
            273 callgsubr
            hstem
            64 40 return
          </CharString>
          <CharString index="357">
            -114 -20 86 -58 122 hhcurveto
            return
          </CharString>
          <CharString index="358">
            hhcurveto
            124 callgsubr
            return
          </CharString>
          <CharString index="359">
            -339 21 -21 665 41 hstem
            76 171 vstem
            194 665 rmoveto
            -118 -665 rlineto
            46 hlineto
            125 706 rlineto
            -148 hlineto
            -8 -41 rlineto
            endchar
          </CharString>
          <CharString index="360">
            rrcurveto
            -110 -20 88 -62 113 555 callgsubr
            return
          </CharString>
          <CharString index="361">
            44 55 19 56 hhcurveto
            return
          </CharString>
          <CharString index="362">
            hlineto
            -59 -340 rlineto
            return
          </CharString>
          <CharString index="363">
            98 hhcurveto
            100 70 66 return
          </CharString>
          <CharString index="364">
            254 -71 callsubr
            return
          </CharString>
          <CharString index="365">
            57 26 62 69 111 hhcurveto
            123 43 -86 -94 -16 hvcurveto
            -99 -17 -75 -86 -124 hhcurveto
            -107 -47 67 58 1 hvcurveto
            -39 hlineto
            -76 -4 60 -86 133 hhcurveto
            return
          </CharString>
          <CharString index="366">
            254 -28 callsubr
            return
          </CharString>
          <CharString index="367">
            67 266 callgsubr
            return
          </CharString>
          <CharString index="368">
            -8 callsubr
            760 380 -92 callsubr
            return
          </CharString>
          <CharString index="369">
            483 callsubr
            57 70 return
          </CharString>
          <CharString index="370">
            -100 -20 -95 -89 341 callgsubr
            19 86 444 callgsubr
            return
          </CharString>
          <CharString index="371">
            146 callsubr
            -59 -51 -20 -36 -37 hvcurveto
            103 3 -67 63 -112 hhcurveto
            -125 -96 70 callsubr
            return
          </CharString>
          <CharString index="372">
            rmoveto
            -86 callsubr
            return
          </CharString>
          <CharString index="373">
            36 221 callsubr
            134 23 608 callgsubr
            -115 -20 -78 -88 -126 hhcurveto
            -10 -10 1 1 -10 hvcurveto
            -7 -36 rlineto
            return
          </CharString>
          <CharString index="374">
            26 16 28 -43 -244 rcurveline
            -159 152 rmoveto
            -105 -68 71 126 22 hvcurveto
            119 21 99 72 99 hhcurveto
            134 32 -105 -86 -14 hvcurveto
            -3 -19 return
          </CharString>
          <CharString index="375">
            249 callgsubr
            -72 48 92 15 hvcurveto
            70 12 61 56 -54 callsubr
            return
          </CharString>
          <CharString index="376">
            -107 callsubr
            145 hlineto
            -75 -429 rlineto
            -153 -28 65 -104 161 hhcurveto
            return
          </CharString>
          <CharString index="377">
            hhcurveto
            27 hlineto
            -12 callsubr
            -67 return
          </CharString>
          <CharString index="378">
            53 -60 -86 -17 hvcurveto
            -82 -15 547 callsubr
            return
          </CharString>
          <CharString index="379">
            369 callsubr
            -344 hlineto
            return
          </CharString>
          <CharString index="380">
            -388 21 482 callsubr
            return
          </CharString>
          <CharString index="381">
            484 callgsubr
            -101 return
          </CharString>
          <CharString index="382">
            rmoveto
            -120 -103 -72 -121 -22 hvcurveto
            43 hlineto
            94 18 75 61 103 hhcurveto
            100 58 -62 -100 -17 hvcurveto
            -155 -28 -121 -24 -117 hhcurveto
            -21 hlineto
            return
          </CharString>
          <CharString index="383">
            -110 -20 88 -62 113 hhcurveto
            25 25 3 5 23 hvcurveto
            -229 -178 rlineto
            50 hlineto
            280 223 34 24 29 31 22 36 rlinecurve
            endchar
          </CharString>
          <CharString index="384">
            212 31 36 337 16 -16 35 -17 17 86 590 callsubr
            138 344 callsubr
            hintmask 1010101110100000
            return
          </CharString>
          <CharString index="385">
            173 callgsubr
            79 hlineto
            32 174 rlineto
            return
          </CharString>
          <CharString index="386">
            135 callsubr
            236 callgsubr
            return
          </CharString>
          <CharString index="387">
            rmoveto
            -95 callsubr
            261 callsubr
            return
          </CharString>
          <CharString index="388">
            15 24 4 hvcurveto
            23 4 -15 16 -21 hhcurveto
            -21 -20 -16 -23 -4 hvcurveto
            -24 -4 return
          </CharString>
          <CharString index="389">
            87 rlineto
            119 callsubr
            return
          </CharString>
          <CharString index="390">
            352 callsubr
            -76 -173 469 callgsubr
            return
          </CharString>
          <CharString index="391">
            58 45 39 69 24 hvcurveto
            -37 hlineto
            -37 -13 -31 -29 -34 -58 -21 67 -70 hhcurveto
            return
          </CharString>
          <CharString index="392">
            -96 188 callgsubr
            -68 70 -28 rrcurveto
            return
          </CharString>
          <CharString index="393">
            146 callsubr
            -102 -84 -61 -101 -17 hvcurveto
            return
          </CharString>
          <CharString index="394">
            rmoveto
            6 callgsubr
            return
          </CharString>
          <CharString index="395">
            rlineto
            40 103 callsubr
            return
          </CharString>
          <CharString index="396">
            37 209 289 -300 rlineto
            return
          </CharString>
          <CharString index="397">
            35 -27 27 -27 36 hstemhm
            return
          </CharString>
          <CharString index="398">
            hhcurveto
            -18 -19 2 3 return
          </CharString>
          <CharString index="399">
            21 460 callgsubr
            return
          </CharString>
          <CharString index="400">
            hlineto
            -6 -34 rlineto
            return
          </CharString>
          <CharString index="401">
            -139 -25 -93 -34 -110 hhcurveto
            -17 hlineto
            -3 -12 -4 607 callsubr
            -152 -29 -112 -94 -121 hhcurveto
            return
          </CharString>
          <CharString index="402">
            93 -16 -70 63 -115 hhcurveto
            -154 479 callsubr
            116 95 67 91 47 hvcurveto
            return
          </CharString>
          <CharString index="403">
            rmoveto
            122 22 104 74 271 callgsubr
            -15 -76 -110 -142 hhcurveto
            -113 -75 99 callgsubr
            return
          </CharString>
          <CharString index="404">
            77 14 46 40 60 hhcurveto
            51 32 -37 -55 -13 hvcurveto
            33 hlineto
            75 17 -39 50 -70 hhcurveto
            -87 -50 -66 -72 -12 hvcurveto
            -1 -5 -1 -4 -5 vvcurveto
            return
          </CharString>
          <CharString index="405">
            -96 148 callgsubr
          </CharString>
          <CharString index="406">
            612 callgsubr
            83 19 68 105 119 hhcurveto
            96 59 -70 -113 -17 hvcurveto
            -13 -21 -9 -24 -4 -26 rrcurveto
            return
          </CharString>
          <CharString index="407">
            370 callgsubr
            129 hlineto
            166 callgsubr
            -109 -20 56 -79 108 hhcurveto
            111 71 79 109 19 hvcurveto
            43 242 rlineto
            return
          </CharString>
          <CharString index="408">
            88 callsubr
            99 34 -77 -96 -12 hvcurveto
            -141 -25 -64 callsubr
            166 callgsubr
            return
          </CharString>
          <CharString index="409">
            602 callgsubr
            -192 hlineto
            -51 -292 rlineto
            -187 512 callgsubr
            return
          </CharString>
          <CharString index="410">
            -72 -46 50 77 14 hvcurveto
            78 14 66 50 return
          </CharString>
          <CharString index="411">
            hvcurveto
            -152 -107 callsubr
            151 hlineto
            return
          </CharString>
          <CharString index="412">
            -107 callsubr
            325 294 callgsubr
            return
          </CharString>
          <CharString index="413">
            -35 290 callsubr
            return
          </CharString>
          <CharString index="414">
            hlineto
            -35 -199 rlineto
            return
          </CharString>
          <CharString index="415">
            26 151 rlineto
            return
          </CharString>
          <CharString index="416">
            -118 -21 hvcurveto
            return
          </CharString>
          <CharString index="417">
            286 141 rmoveto
            -113 521 callgsubr
            -288 rcurveline
            -32 -39 -51 -22 -63 hhcurveto
            return
          </CharString>
          <CharString index="418">
            24 callsubr
            endchar
          </CharString>
          <CharString index="419">
            294 callgsubr
            -123 -21 -89 -32 -117 hhcurveto
            return
          </CharString>
          <CharString index="420">
            75 -266 39 219 562 callgsubr
            return
          </CharString>
          <CharString index="421">
            hlineto
            -14 -82 -25 -138 -92 -34 -108 -1 rlinecurve
            return
          </CharString>
          <CharString index="422">
            389 callsubr
            12 return
          </CharString>
          <CharString index="423">
            160 475 callgsubr
            return
          </CharString>
          <CharString index="424">
            635 hmoveto
            356 callsubr
            return
          </CharString>
          <CharString index="425">
            rmoveto
            -81 -55 54 88 13 hvcurveto
            12 81 74 54 73 5 87 6 60 33 35 50 -38 -220 rcurveline
            -70 -10 -69 -81 -101 hhcurveto
            return
          </CharString>
          <CharString index="426">
            211 callsubr
            -651 -107 callsubr
            463 hlineto
            -26 245 callsubr
            -91 -78 return
          </CharString>
          <CharString index="427">
            67 11 67 62 79 hhcurveto
            89 41 -65 -69 -13 hvcurveto
            -13 -78 -51 -49 return
          </CharString>
          <CharString index="428">
            hlineto
            474 callsubr
            return
          </CharString>
          <CharString index="429">
            -7 -57 -84 -26 -71 return
          </CharString>
          <CharString index="430">
            -26 -147 rlineto
            return
          </CharString>
          <CharString index="431">
            -92 callsubr
            -697 224 callsubr
            return
          </CharString>
          <CharString index="432">
            vstem
            95 hmoveto
            364 callgsubr
            return
          </CharString>
          <CharString index="433">
            101 265 rmoveto
            88 17 72 60 148 callsubr
            -8 callsubr
            return
          </CharString>
          <CharString index="434">
            rmoveto
            28 callgsubr
            -48 -275 rlineto
            -1 hlineto
            -95 -17 -70 -81 -105 hhcurveto
            return
          </CharString>
          <CharString index="435">
            141 rmoveto
            -112 -85 -85 callgsubr
            -51 -22 -64 hhcurveto
            return
          </CharString>
          <CharString index="436">
            101 325 rmoveto
            89 17 71 592 callsubr
            -16 hvcurveto
            -86 -16 -79 -61 -81 hhcurveto
            -90 -53 182 callsubr
            return
          </CharString>
          <CharString index="437">
            rlineto
            -148 -26 62 -93 135 0 callsubr
          </CharString>
          <CharString index="438">
            hlineto
            243 callgsubr
            return
          </CharString>
          <CharString index="439">
            418 301 rmoveto
            -1 -4 0 -4 -1 -4 rrcurveto
            -204 155 callgsubr
            205 hlineto
            137 -451 rmoveto
            return
          </CharString>
          <CharString index="440">
            165 36 callgsubr
            return
          </CharString>
          <CharString index="441">
            -60 -79 15 hvcurveto
            -435 -363 rlineto
            -3 54 vlineto
            373 317 -56 -317 290 callgsubr
            return
          </CharString>
          <CharString index="442">
            -129 -23 87 -76 116 hhcurveto
            93 85 52 73 46 hvcurveto
            -41 -235 -11 callsubr
          </CharString>
          <CharString index="443">
            -72 254 -193 33 264 435 callgsubr
            return
          </CharString>
          <CharString index="444">
            525 callgsubr
            31 hlineto
            7 34 rlineto
            -360 293 callsubr
            return
          </CharString>
          <CharString index="445">
            hhcurveto
            -35 293 callsubr
            35 hlineto
            103 37 -12 -187 86 hvcurveto
            return
          </CharString>
          <CharString index="446">
            -344 1 callsubr
            return
          </CharString>
          <CharString index="447">
            33 275 35 -26 36 hstemhm
            143 362 return
          </CharString>
          <CharString index="448">
            hlineto
            11 65 rlineto
            -42 hlineto
            5 27 rlineto
            31 6 return
          </CharString>
          <CharString index="449">
            35 -27 36 hstemhm
            70 262 callgsubr
            return
          </CharString>
          <CharString index="450">
            -180 -50 86 -127 186 hhcurveto
            return
          </CharString>
          <CharString index="451">
            169 callgsubr
            38 return
          </CharString>
          <CharString index="452">
            -107 0 389 callgsubr
            return
          </CharString>
          <CharString index="453">
            hlineto
            -22 -127 rlineto
            -102 hlineto
            -143 return
          </CharString>
          <CharString index="454">
            -64 -6 -71 -46 -17 -92 rrcurveto
            return
          </CharString>
          <CharString index="455">
            73 -17 -61 603 callsubr
            return
          </CharString>
          <CharString index="456">
            111 hhcurveto
            107 89 72 return
          </CharString>
          <CharString index="457">
            34 -34 293 callgsubr
            return
          </CharString>
          <CharString index="458">
            -8 39 481 38 return
          </CharString>
          <CharString index="459">
            hlineto
            -170 -129 return
          </CharString>
          <CharString index="460" raw="1">
            15f72b06 0b  
          </CharString>
          <CharString index="461">
            -86 -10 -81 -56 -18 -103 163 callsubr
            return
          </CharString>
          <CharString index="462">
            1 4 1 5 1 6 rrcurveto
            127 91 57 147 26 hvcurveto
            22 118 rlineto
            232 hlineto
            -65 -372 rlineto
            return
          </CharString>
          <CharString index="463">
            104 callsubr
            237 85 callsubr
            138 callsubr
            return
          </CharString>
          <CharString index="464">
            432 callgsubr
            -32 hhcurveto
            -6 -27 rlineto
            46 36 22 74 13 hvcurveto
            2 15 2 18 return
          </CharString>
          <CharString index="465">
            -18 callsubr
            endchar
          </CharString>
          <CharString index="466">
            130 23 hvcurveto
            return
          </CharString>
          <CharString index="467">
            -107 callsubr
            174 hlineto
            -43 -246 rlineto
            -147 -27 52 -91 133 hhcurveto
            14 597 callgsubr
            return
          </CharString>
          <CharString index="468">
            -42 12 -118 70 callgsubr
            return
          </CharString>
          <CharString index="469">
            -91 25 76 -55 114 hhcurveto
            119 -1 84 62 41 65 -45 -255 rcurveline
            178 callsubr
            return
          </CharString>
          <CharString index="470">
            248 callsubr
            -85 -16 hvcurveto
            -82 -15 547 callsubr
            -8 callsubr
            return
          </CharString>
          <CharString index="471">
            -210 653 35 hstem
            99 330 vstem
            105 688 81 callsubr
            endchar
          </CharString>
          <CharString index="472">
            81 19 64 107 125 hhcurveto
            96 60 367 callsubr
            return
          </CharString>
          <CharString index="473">
            37 209 288 -299 rlineto
            -1 -1 0 -1 -1 vvcurveto
            return
          </CharString>
          <CharString index="474">
            -73 309 callsubr
            return
          </CharString>
          <CharString index="475">
            417 callgsubr
            36 return
          </CharString>
          <CharString index="476">
            -34 -196 rlineto
            return
          </CharString>
          <CharString index="477">
            113 callsubr
            -116 -20 -105 -46 -75 hhcurveto
            -114 -64 79 116 20 hvcurveto
            133 return
          </CharString>
          <CharString index="478">
            vstem
            170 120 rmoveto
            -76 175 137 175 rlineto
            -49 hlineto
            -134 -175 73 -175 rlineto
            return
          </CharString>
          <CharString index="479">
            rmoveto
            -82 -40 62 87 15 hvcurveto
            43 245 rlineto
            266 hlineto
            -43 -245 rlineto
            -87 -15 -60 -62 -84 hhcurveto
            return
          </CharString>
          <CharString index="480">
            100 callsubr
            355 rlineto
            return
          </CharString>
          <CharString index="481">
            rmoveto
            -214 155 callgsubr
            214 hlineto
            -1096 -670 287 callsubr
            return
          </CharString>
          <CharString index="482">
            -126 -47 88 617 callsubr
            106 19 64 81 107 hhcurveto
            103 217 callgsubr
            -24 hvcurveto
            -2 -11 rlineto
            return
          </CharString>
          <CharString index="483">
            36 151 178 callgsubr
            return
          </CharString>
          <CharString index="484">
            264 31 57 67 85 546 callgsubr
            return
          </CharString>
          <CharString index="485">
            -107 callsubr
            endchar
          </CharString>
          <CharString index="486">
            -112 -19 hvcurveto
            return
          </CharString>
          <CharString index="487">
            36 42 36 259 16 -16 35 -17 17 63 34 -11 590 callsubr
            132 40 return
          </CharString>
          <CharString index="488">
            36 14 31 24 48 hhcurveto
            47 24 -28 -40 -7 hvcurveto
            -43 -8 -36 -24 -47 hhcurveto
            -56 hlineto
            -6 -29 rlineto
            return
          </CharString>
          <CharString index="489">
            503 -453 424 callsubr
            90 38 407 15 return
          </CharString>
          <CharString index="490">
            233 101 callsubr
            return
          </CharString>
          <CharString index="491">
            -84 hhcurveto
            86 callgsubr
            return
          </CharString>
          <CharString index="492">
            388 callgsubr
            -20 return
          </CharString>
          <CharString index="493">
            -88 -75 473 callsubr
            return
          </CharString>
          <CharString index="494">
            32 -32 34 293 35 hstemhm
            return
          </CharString>
          <CharString index="495">
            -107 callsubr
            328 hlineto
            return
          </CharString>
          <CharString index="496">
            546 callsubr
            -3 return
          </CharString>
          <CharString index="497">
            -73 -414 rlineto
            return
          </CharString>
          <CharString index="498">
            -44 -254 rlineto
            return
          </CharString>
          <CharString index="499">
            -107 callsubr
            470 92 callgsubr
            return
          </CharString>
          <CharString index="500">
            7 34 rlineto
            -360 293 callsubr
            217 hlineto
            -81 -32 -56 -68 -16 -87 rrcurveto
            -132 -24 return
          </CharString>
          <CharString index="501">
            1 callsubr
            -17 callsubr
            return
          </CharString>
          <CharString index="502">
            36 -28 36 116 34 154 35 -10 273 callgsubr
            -27 36 hstemhm
            64 40 return
          </CharString>
          <CharString index="503">
            rmoveto
            123 705 rlineto
            152 523 callgsubr
          </CharString>
          <CharString index="504">
            41 316 27 return
          </CharString>
          <CharString index="505">
            -21 117 35 return
          </CharString>
          <CharString index="506">
            hhcurveto
            152 129 109 171 30 hvcurveto
            172 30 -90 106 -153 hhcurveto
            -118 return
          </CharString>
          <CharString index="507">
            35 rlineto
            -651 -107 callsubr
            463 hlineto
            -26 245 callsubr
            -91 -78 -37 return
          </CharString>
          <CharString index="508">
            411 120 35 376 513 callsubr
            hstem
            60 40 376 35 376 40 vstem
            return
          </CharString>
          <CharString index="509">
            425 callgsubr
            endchar
          </CharString>
          <CharString index="510">
            hhcurveto
            119 84 88 callgsubr
            return
          </CharString>
          <CharString index="511">
            21 -21 145 35 39 35 219 36 -35 35 return
          </CharString>
          <CharString index="512">
            36 hlineto
            37 14 30 29 34 59 21 -66 69 hhcurveto
            return
          </CharString>
          <CharString index="513">
            -39 -223 rlineto
            40 113 callsubr
            return
          </CharString>
          <CharString index="514">
            164 rmoveto
            -143 -72 112 617 callgsubr
            return
          </CharString>
          <CharString index="515">
            36 130 35 hstemhm
            62 39 375 return
          </CharString>
          <CharString index="516">
            34 -34 35 -30 605 callgsubr
            hstemhm
            return
          </CharString>
          <CharString index="517">
            hlineto
            110 12 -54 101 -142 hhcurveto
            return
          </CharString>
          <CharString index="518">
            255 callgsubr
            hstem
            return
          </CharString>
          <CharString index="519">
            -256 34 113 31 return
          </CharString>
          <CharString index="520">
            -8 41 635 40 return
          </CharString>
          <CharString index="521">
            hlineto
            -82 -465 rlineto
            return
          </CharString>
          <CharString index="522">
            379 callgsubr
            hstemhm
            return
          </CharString>
          <CharString index="523">
            -21 702 -20 return
          </CharString>
          <CharString index="524">
            63 356 rlineto
            return
          </CharString>
          <CharString index="525">
            hlineto
            524 callsubr
            70 -15 -52 58 -106 hhcurveto
            -123 -109 -86 -140 -25 hvcurveto
            return
          </CharString>
          <CharString index="526">
            -128 -149 -1 -116 -55 -28 -157 rlinecurve
            -121 -21 75 -79 125 hhcurveto
            return
          </CharString>
          <CharString index="527">
            106 19 -94 23 -98 hhcurveto
            -262 hlineto
            26 140 rlineto
            638 hlineto
            -65 -368 rlineto
            return
          </CharString>
          <CharString index="528">
            53 272 rmoveto
            558 callgsubr
            67 85 45 hvcurveto
            return
          </CharString>
          <CharString index="529">
            -59 48 -97 hhcurveto
            -136 -117 -96 -153 -28 hvcurveto
            41 hlineto
            133 23 101 81 return
          </CharString>
          <CharString index="530">
            16 73 59 90 hhcurveto
            87 271 callsubr
            -92 -51 60 return
          </CharString>
          <CharString index="531">
            36 253 36 return
          </CharString>
          <CharString index="532">
            36 80 34 2 34 179 32 129 33 -13 605 callgsubr
            hstemhm
            64 40 return
          </CharString>
          <CharString index="533">
            -104 -56 67 102 18 hvcurveto
            -156 -319 287 callsubr
            return
          </CharString>
          <CharString index="534">
            hhcurveto
            -135 -94 -103 -146 -2 hvcurveto
            41 hlineto
            121 73 92 114 89 56 return
          </CharString>
          <CharString index="535">
            261 0 37 143 37 117 36 284 48 -37 37 hstemhm
            -39 919 return
          </CharString>
          <CharString index="536">
            36 335 34 309 35 hstem
            61 40 vstem
            return
          </CharString>
          <CharString index="537">
            12 27 152 rcurveline
            277 309 callgsubr
            return
          </CharString>
          <CharString index="538">
            369 callgsubr
            592 hlineto
            -31 callgsubr
            return
          </CharString>
          <CharString index="539">
            hlineto
            -68 -384 rlineto
            457 callsubr
            return
          </CharString>
          <CharString index="540">
            hvcurveto
            1 4 1 5 1 6 rrcurveto
            127 98 return
          </CharString>
          <CharString index="541">
            308 callgsubr
            255 34 257 35 return
          </CharString>
          <CharString index="542">
            192 413 callsubr
            return
          </CharString>
          <CharString index="543">
            31 209 546 callgsubr
            return
          </CharString>
          <CharString index="544">
            -195 -166 rcurveline
            49 hlineto
            return
          </CharString>
          <CharString index="545">
            57 24 64 69 109 hhcurveto
            return
          </CharString>
          <CharString index="546">
            -705 rlineto
            40 hlineto
            endchar
          </CharString>
          <CharString index="547">
            40 407 15 return
          </CharString>
          <CharString index="548">
            hlineto
            -30 -168 return
          </CharString>
          <CharString index="549">
            hlineto
            7 40 rlineto
            return
          </CharString>
          <CharString index="550">
            -48 callsubr
            -679 hlineto
            -6 -35 rlineto
            214 294 callgsubr
            return
          </CharString>
          <CharString index="551">
            48 103 18 235 callgsubr
            return
          </CharString>
          <CharString index="552">
            292 callsubr
            0 441 callgsubr
            39 605 callgsubr
            hstemhm
            79 42 return
          </CharString>
          <CharString index="553">
            -278 -228 rlineto
            48 hlineto
            327 272 19 16 17 19 14 23 rlinecurve
            return
          </CharString>
          <CharString index="554">
            vstem
            291 338 callgsubr
            return
          </CharString>
          <CharString index="555">
            vstem
            227 742 rmoveto
            -130 -742 rlineto
            40 hlineto
            130 742 rlineto
            return
          </CharString>
          <CharString index="556">
            -85 -45 -63 -54 -20 hvcurveto
            -2 hlineto
            54 1 -23 63 -80 hhcurveto
            -88 -65 -65 -97 return
          </CharString>
          <CharString index="557">
            218 callgsubr
            endchar
          </CharString>
          <CharString index="558">
            -149 505 callsubr
            return
          </CharString>
          <CharString index="559">
            -161 -28 92 -89 155 hhcurveto
            return
          </CharString>
          <CharString index="560">
            587 callsubr
            38 return
          </CharString>
          <CharString index="561">
            -58 -70 -38 544 callgsubr
            return
          </CharString>
          <CharString index="562">
            594 callsubr
            -257 hlineto
            return
          </CharString>
          <CharString index="563">
            33 501 callgsubr
            return
          </CharString>
          <CharString index="564">
            -126 -22 -115 -86 return
          </CharString>
          <CharString index="565">
            -20 -19 -3 -6 -18 hvcurveto
            return
          </CharString>
          <CharString index="566">
            10 58 -40 32 -81 -4 return
          </CharString>
          <CharString index="567">
            -112 -20 hvcurveto
            return
          </CharString>
          <CharString index="568">
            21 -21 92 36 return
          </CharString>
          <CharString index="569">
            -43 -242 rlineto
            return
          </CharString>
          <CharString index="570">
            -9 32 -2 -21 231 32 176 31 208 32 -8 -20 hstemhm
            9 return
          </CharString>
          <CharString index="571">
            -92 16 75 -52 102 558 callsubr
            return
          </CharString>
          <CharString index="572">
            580 callsubr
            -3 16 16 -2 18 hhcurveto
            return
          </CharString>
          <CharString index="573">
            164 hhcurveto
            127 91 78 65 32 hvcurveto
            return
          </CharString>
          <CharString index="574">
            rlineto
            215 hlineto
            191 hmoveto
            2 callgsubr
            return
          </CharString>
          <CharString index="575">
            204 -8 rmoveto
            118 85 58 94 hvcurveto
            return
          </CharString>
          <CharString index="576">
            346 callsubr
            -107 return
          </CharString>
          <CharString index="577">
            75 -235 -21 248 40 479 39 return
          </CharString>
          <CharString index="578">
            -21 299 38 -34 34 326 39 hstemhm
            return
          </CharString>
          <CharString index="579">
            hlineto
            618 callgsubr
            return
          </CharString>
          <CharString index="580">
            -27 hvcurveto
            -2 hlineto
            74 return
          </CharString>
          <CharString index="581">
            -30 -169 rlineto
            return
          </CharString>
          <CharString index="582">
            -27 -148 rlineto
            return
          </CharString>
          <CharString index="583">
            54 266 -191 34 341 34 167 35 hstemhm
            453 36 return
          </CharString>
          <CharString index="584">
            rlineto
            137 callgsubr
            return
          </CharString>
          <CharString index="585">
            36 -36 37 -37 222 -35 35 hstemhm
            67 41 313 27 -27 31 return
          </CharString>
          <CharString index="586">
            -129 -106 -172 -30 hvcurveto
            -171 -30 91 -109 152 hhcurveto
            return
          </CharString>
          <CharString index="587">
            -77 -66 -56 -80 -14 hvcurveto
            151 104 rmoveto
            57 31 -41 -63 -10 hvcurveto
            return
          </CharString>
          <CharString index="588">
            -57 -69 -36 168 callsubr
            return
          </CharString>
          <CharString index="589">
            -21 543 -20 return
          </CharString>
          <CharString index="590">
            hhcurveto
            109 77 return
          </CharString>
          <CharString index="591">
            58 -65 98 hhcurveto
            return
          </CharString>
          <CharString index="592">
            36 39 180 callgsubr
            53 41 368 600 callsubr
            return
          </CharString>
          <CharString index="593">
            69 13 37 40 54 hhcurveto
            50 26 -35 -58 -14 hvcurveto
            37 hlineto
            80 return
          </CharString>
          <CharString index="594">
            -24 -131 75 -96 121 -21 -195 -165 rcurveline
            49 hlineto
            return
          </CharString>
          <CharString index="595">
            -256 rmoveto
            550 callsubr
            return
          </CharString>
          <CharString index="596">
            rlineto
            -148 -26 62 -92 132 193 callsubr
            return
          </CharString>
          <CharString index="597">
            152 26 92 74 108 hhcurveto
            105 57 -68 -132 -24 hvcurveto
            return
          </CharString>
          <CharString index="598">
            72 13 42 41 54 hhcurveto
            53 27 -36 -57 -12 hvcurveto
            34 hlineto
            78 return
          </CharString>
          <CharString index="599">
            rmoveto
            -121 -256 rlineto
            35 hlineto
            138 256 rlineto
            endchar
          </CharString>
          <CharString index="600">
            384 callgsubr
            98 return
          </CharString>
          <CharString index="601">
            rmoveto
            142 47 -110 -98 -17 hvcurveto
            return
          </CharString>
          <CharString index="602">
            42 752 41 -32 32 407 15 return
          </CharString>
          <CharString index="603">
            197 306 callsubr
            return
          </CharString>
          <CharString index="604">
            3 hlineto
            -82 5 64 -71 112 hhcurveto
            return
          </CharString>
          <CharString index="605">
            -111 -132 -19 hvcurveto
            -3 -22 rlineto
            return
          </CharString>
          <CharString index="606">
            -248 21 -21 507 47 -11 -20 return
          </CharString>
          <CharString index="607">
            -174 0 38 467 38 return
          </CharString>
          <CharString index="608">
            35 414 35 hstem
            58 40 return
          </CharString>
          <CharString index="609">
            127 93 58 106 54 hvcurveto
            return
          </CharString>
          <CharString index="610">
            rmoveto
            205 callgsubr
            return
          </CharString>
          <CharString index="611">
            -9 36 -6 398 callsubr
            return
          </CharString>
          <CharString index="612">
            -27 88 -88 132 hhcurveto
            return
          </CharString>
          <CharString index="613">
            35 293 36 -35 35 return
          </CharString>
          <CharString index="614">
            165 31 145 35 return
          </CharString>
          <CharString index="615">
            27 21 22 26 16 28 return
          </CharString>
          <CharString index="616">
            186 rlineto
            -41 hlineto
            return
          </CharString>
          <CharString index="617">
            hstemhm
            47 47 456 return
          </CharString>
          <CharString index="618">
            rmoveto
            -99 callsubr
            return
          </CharString>
          <CharString index="619">
            rlineto
            -280 hlineto
            return
          </CharString>
          <CharString index="620">
            35 139 35 return
          </CharString>
          <CharString index="621">
            43 -72 90 -56 3 -2 rcurveline
            -243 -164 -1 -5 rlineto
            return
          </CharString>
          <CharString index="622">
            rrcurveto
            -96 -50 callsubr
            return
          </CharString>
          <CharString index="623">
            36 427 35 150 35 hstem
            60 41 445 40 vstem
            return
          </CharString>
          <CharString index="624">
            4 callgsubr
            -191 hlineto
            return
          </CharString>
          <CharString index="625">
            8 1 1 11 hvcurveto
            6 36 rlineto
            -1 -10 -10 -1 -10 hhcurveto
            return
          </CharString>
          <CharString index="626">
            -17 -96 55 -79 121 -15 -194 -165 rcurveline
            49 hlineto
            return
          </CharString>
          <CharString index="627">
            35 384 33 200 569 callgsubr
            hstem
            42 38 vstem
            return
          </CharString>
          <CharString index="628">
            -1 callgsubr
            rrcurveto
            814 105 -92 callsubr
            return
          </CharString>
          <CharString index="629">
            207 callgsubr
            -57 -75 -96 216 callsubr
            return
          </CharString>
          <CharString index="630">
            -106 -18 79 -59 84 hhcurveto
            26 31 5 6 17 hvcurveto
            endchar
          </CharString>
          <CharString index="631">
            -45 -258 rlineto
            return
          </CharString>
          <CharString index="632">
            hlineto
            -15 -82 rlineto
            return
          </CharString>
          <CharString index="633">
            36 127 35 return
          </CharString>
          <CharString index="634">
            11 22 8 24 4 24 rrcurveto
            94 16 -36 68 -86 hhcurveto
            return
          </CharString>
          <CharString index="635">
            67 callgsubr
            -112 hlineto
            return
          </CharString>
          <CharString index="636">
            -18 616 callsubr
            427 289 rmoveto
            -215 hlineto
            return
          </CharString>
          <CharString index="637">
            448 34 callsubr
            return
          </CharString>
          <CharString index="638">
            vstem
            164 740 454 callgsubr
            return
          </CharString>
          <CharString index="639">
            hlineto
            -20 -108 -25 -137 -87 -35 -110 -1 rlinecurve
            return
          </CharString>
          <CharString index="640">
            204 -257 rmoveto
            -139 -83 87 126 31 hvcurveto
            return
          </CharString>
          <CharString index="641">
            34 126 178 callgsubr
            323 35 return
          </CharString>
          <CharString index="642">
            74 395 rmoveto
            -7 -40 rlineto
            510 442 callsubr
            return
          </CharString>
          <CharString index="643">
            -96 123 callsubr
            return
          </CharString>
          <CharString index="644">
            -79 -55 -17 -93 rrcurveto
            -120 -21 return
          </CharString>
          <CharString index="645">
            hlineto
            56 36 48 46 13 75 rrcurveto
            return
          </CharString>
          <CharString index="646">
            -36 hlineto
            391 callsubr
            38 hlineto
            return
          </CharString>
          <CharString index="647">
            hhcurveto
            -35 hlineto
            -6 -29 rlineto
            36 hlineto
            return
          </CharString>
          <CharString index="648">
            hlineto
            -8 -19 -6 -21 -4 -22 rrcurveto
            return
          </CharString>
          <CharString index="649">
            526 callsubr
            hstemhm
            return
          </CharString>
          <CharString index="650">
            293 callgsubr
            hstem
            return
          </CharString>
          <CharString index="651">
            21 606 callgsubr
            return
          </CharString>
          <CharString index="652">
            30 121 35 return
          </CharString>
          <CharString index="653">
            -20 -3 hvcurveto
            -20 return
          </CharString>
          <CharString index="654">
            -73 -65 -87 hhcurveto
            return
          </CharString>
          <CharString index="655">
            -153 -129 return
          </CharString>
          <CharString index="656">
            -116 hhcurveto
            endchar
          </CharString>
          <CharString index="657">
            70 48 37 55 9 hvcurveto
            459 callsubr
            return
          </CharString>
          <CharString index="658">
            457 callgsubr
            89 17 69 hhcurveto
            return
          </CharString>
          <CharString index="659">
            170 callgsubr
            -337 rlineto
            3 vlineto
            -125 return
          </CharString>
          <CharString index="660">
            588 65 75 28 hstem
            92 39.5 return
          </CharString>
          <CharString index="661">
            35 122 105 -105 454 -317 27 68 36 return
          </CharString>
          <CharString index="662">
            14 hvcurveto
            79 14 65 49 -3 callsubr
            return
          </CharString>
          <CharString index="663">
            hhcurveto
            -62 hlineto
            -113 -92 -70 460 callsubr
            -106 return
          </CharString>
          <CharString index="664">
            hlineto
            -19 -105 rlineto
            -59 callgsubr
            return
          </CharString>
          <CharString index="665">
            hhcurveto
            108 77 57 70 42 hvcurveto
            462 callsubr
            return
          </CharString>
          <CharString index="666">
            25 62 11 hvcurveto
            68 12 57 21 54 hhcurveto
            42 hlineto
            return
          </CharString>
          <CharString index="667">
            71 11 63 61 15 83 22 129 rcurveline
            endchar
          </CharString>
          <CharString index="668">
            357 34 169 35 return
          </CharString>
          <CharString index="669">
            -196 34 183 -21 return
          </CharString>
          <CharString index="670">
            451 14 callgsubr
            return
          </CharString>
          <CharString index="671">
            hlineto
            -31 callgsubr
            73 return
          </CharString>
          <CharString index="672">
            599 callgsubr
            60 return
          </CharString>
          <CharString index="673">
            37 338 14 return
          </CharString>
          <CharString index="674">
            -21 124 34 return
          </CharString>
          <CharString index="675">
            rmoveto
            20 3 -13 return
          </CharString>
          <CharString index="676">
            503 callgsubr
            -31 callgsubr
            return
          </CharString>
          <CharString index="677">
            493 callsubr
            64 54 return
          </CharString>
          <CharString index="678">
            -83 -470 rlineto
            41 -92 callgsubr
            return
          </CharString>
          <CharString index="679">
            -41 91 104 21 hvcurveto
            1 5 1 4 1 5 return
          </CharString>
          <CharString index="680">
            275 36 394 35 hstem
            110 40 vstem
            return
          </CharString>
          <CharString index="681">
            31 209 29 171 30 122 35 hstem
            return
          </CharString>
          <CharString index="682">
            161 484 rmoveto
            104 18 81 67 103 hhcurveto
            return
          </CharString>
          <CharString index="683">
            21 -21 101 35 3 36 254 35 -34 34 return
          </CharString>
          <CharString index="684">
            38 314 40 -4 34 276 39 38 40 return
          </CharString>
          <CharString index="685">
            -96 37 callsubr
            130 return
          </CharString>
          <CharString index="686">
            460 59 38 36 58 12 71 rlinecurve
            -39 hlineto
            return
          </CharString>
          <CharString index="687">
            -86 141 hhcurveto
            115 84 74 83 43 hvcurveto
            return
          </CharString>
          <CharString index="688">
            -15 21 89 callgsubr
            3 hvcurveto
            endchar
          </CharString>
          <CharString index="689">
            978 rmoveto
            -34 hlineto
            -57 -10 return
          </CharString>
          <CharString index="690">
            605 callgsubr
            hstemhm
            72 40 return
          </CharString>
          <CharString index="691">
            -107 callsubr
            835 hlineto
            return
          </CharString>
          <CharString index="692">
            59 28 55 58 18 102 rrcurveto
            return
          </CharString>
          <CharString index="693">
            73 39 31 39 231 36 return
          </CharString>
          <CharString index="694">
            32 147 35 hstemhm
            453 return
          </CharString>
          <CharString index="695">
            370 callgsubr
            442 hlineto
            return
          </CharString>
          <CharString index="696">
            21 564 callgsubr
            return
          </CharString>
          <CharString index="697">
            31 -31 215 -35 35 hstemhm
            return
          </CharString>
          <CharString index="698">
            36 316 35 121 35 return
          </CharString>
          <CharString index="699">
            59 90 hhcurveto
            87 54 -60 -86 return
          </CharString>
          <CharString index="700">
            -150 -27 75 -93 return
          </CharString>
          <CharString index="701">
            hlineto
            619 callsubr
            return
          </CharString>
          <CharString index="702">
            hlineto
            28 162 rlineto
            return
          </CharString>
          <CharString index="703">
            226 32 -32 34 return
          </CharString>
          <CharString index="704">
            40.5 return
          </CharString>
          <CharString index="705">
            147 26 110 return
          </CharString>
          <CharString index="706">
            6 34 rlineto
            -8 return
          </CharString>
          <CharString index="707">
            42 778 42 return
          </CharString>
          <CharString index="708">
            -173 -31 hvcurveto
            return
          </CharString>
          <CharString index="709">
            -2 -4 -19 hvcurveto
            return
          </CharString>
          <CharString index="710">
            63 -113 hhcurveto
            return
          </CharString>
          <CharString index="711">
            hlineto
            -26 -149 return
          </CharString>
          <CharString index="712">
            rmoveto
            88 17 72 return
          </CharString>
          <CharString index="713">
            92 rmoveto
            150 -1 92 103 23 136 return
          </CharString>
          <CharString index="714">
            -15 -2 -12 -1 -7 -1 -7 -1 -7 rrcurveto
            return
          </CharString>
          <CharString index="715">
            12 -16 hhcurveto
            -16 -14 -12 -15 -2 hvcurveto
            -16 return
          </CharString>
          <CharString index="716">
            -1 -12 rlineto
            35 hlineto
            2 12 rlineto
            135 return
          </CharString>
          <CharString index="717">
            35 286 543 callsubr
            104 40 return
          </CharString>
          <CharString index="718">
            hhcurveto
            -40 hlineto
            -31 -172 rlineto
            -139 -24 return
          </CharString>
          <CharString index="719">
            494 callsubr
            -1 return
          </CharString>
          <CharString index="720">
            -116 -21 -83 -73 -118 hhcurveto
            -83 hlineto
            return
          </CharString>
          <CharString index="721">
            307 callgsubr
            rrcurveto
            endchar
          </CharString>
          <CharString index="722">
            rlineto
            40 hlineto
            104 callsubr
            endchar
          </CharString>
          <CharString index="723">
            -56 -57 -77 hhcurveto
            return
          </CharString>
          <CharString index="724">
            115 20 hvcurveto
            return
          </CharString>
          <CharString index="725">
            106 18 65 81 return
          </CharString>
          <CharString index="726">
            -60 -341 rlineto
            return
          </CharString>
          <CharString index="727">
            rlineto
            214 hlineto
            return
          </CharString>
        <CharString name=".notdef">
          -98 0 50 600 50 hstem
          0 50 400 50 vstem
          0 vmoveto
          500 700 -500 hlineto
          250 -305 rmoveto
          -170 255 rlineto
          340 hlineto
          -140 -300 rmoveto
          170 255 rlineto
          -510 vlineto
          -370 -45 rmoveto
          170 255 170 -255 rlineto
          -370 555 rmoveto
          170 -255 -170 -255 rlineto
          endchar
        </CharString>
        <CharString name="A">
          35 callgsubr
          -7 37 123 callgsubr
        </CharString>
        <CharString name="AE">
          428 callsubr
          hintmask 11110100
          517 654 121 callgsubr
        </CharString>
        <CharString name="Aacute">
          35 callgsubr
          47 719 -68 callgsubr
          -46 -638 123 callgsubr
        </CharString>
        <CharString name="Abreve">
          29 0 217 -37 37 541 37 hstemhm
          -18 565 hintmask 10110000
          18 callsubr
          hintmask 01110000
          243 callsubr
          83 691 265 callsubr
          -90 -654 123 callgsubr
        </CharString>
        <CharString name="Acircumflex">
          35 callgsubr
          64 578 -28 callgsubr
          43 -623 123 callgsubr
        </CharString>
        <CharString name="Adieresis">
          29 0 217 -37 37 hstemhm
          -18 565 -249 75 69 76 39 callgsubr
          hintmask 01011000
          -133 589 -96 callsubr
          -18 -552 123 callgsubr
        </CharString>
        <CharString name="Agrave">
          35 callgsubr
          -149 719 46 callgsubr
          -30 -551 123 callgsubr
        </CharString>
        <CharString name="Amacron">
          29 0 217 -37 37 580 35 hstemhm
          -18 592 hintmask 10110000
          18 callsubr
          hintmask 01110000
          243 callsubr
          -213 652 81 callsubr
          -118 -615 123 callgsubr
        </CharString>
        <CharString name="Aogonek">
          29 562 callsubr
          180 37 hstem
          -18 565 vstem
          411 686 rmoveto
          -50 hlineto
          -379 -686 rlineto
          49 hlineto
          243 callsubr
          32 -167 -24 -10 -76 -32 -32 -42 -8 -41 rlinecurve
          -59 -10 127 callsubr
          599 callsubr
          -24 -23 -5 -20 hhcurveto
          -38 -24 17 36 6 hvcurveto
          5 28 22 27 54 23 71 31 rcurveline
          -91 217 123 callgsubr
        </CharString>
        <CharString name="Aring">
          29 0 217 -37 37 539 29 133 29 hstemhm
          -18 565 hintmask 10111000
          18 callsubr
          hintmask 01111000
          243 callsubr
          17 672 rmoveto
          -41 -7 -33 -26 -37 hhcurveto
          -36 -24 26 41 7 hvcurveto
          41 8 32 25 36 hhcurveto
          38 24 -25 -41 -8 hvcurveto
          -160 -1 rmoveto
          -59 -10 37 -36 51 hhcurveto
          53 49 36 59 10 hvcurveto
          60 11 -36 36 -53 hhcurveto
          -52 -49 -36 -60 -11 hvcurveto
          136 -634 123 callgsubr
        </CharString>
        <CharString name="Atilde">
          29 0 217 -37 37 530 461 callgsubr
          -18 573 hintmask 10101000
          18 callsubr
          hintmask 01111000
          243 callsubr
          -180 569 71 callgsubr
          hintmask 01101000
          -54 callgsubr
          hintmask 01111000
          49 callgsubr
          173 -532 123 callgsubr
        </CharString>
        <CharString name="B">
          -19 0 38 306 38 -19 19 281 39 hstemhm
          472 45 -3 46 hintmask 11011000
          469 191 rmoveto
          -95 -17 -78 -58 -114 hhcurveto
          -175 hlineto
          54 306 rlineto
          172 hlineto
          114 61 -60 -93 -17 hvcurveto
          hintmask 11010100
          42 333 rmoveto
          -87 -15 -67 -55 -107 hhcurveto
          -176 hlineto
          50 281 rlineto
          171 hlineto
          116 43 -57 -82 -15 hvcurveto
          3 -336 rmoveto
          hintmask 10111000
          15 90 -52 71 -77 14 71 18 69 51 17 96 rrcurveto
          hintmask 11010100
          96 17 -50 78 -147 hhcurveto
          -219 165 callsubr
          222 hlineto
          150 90 83 105 19 hvcurveto
          endchar
        </CharString>
        <CharString name="C">
          172 -7 41 634 41 hstem
          60 47 -51 callgsubr
          endchar
        </CharString>
        <CharString name="CR">
          -305 endchar
        </CharString>
        <CharString name="Cacute">
          172 -7 41 634 41 hstem
          60 47 -51 callgsubr
          534 549 -68 callgsubr
          endchar
        </CharString>
        <CharString name="Ccaron">
          172 -7 41 634 41 hstem
          60 47 -51 callgsubr
          572 525 -39 callsubr
        </CharString>
        <CharString name="Ccedilla">
          172 412 callsubr
          71 41 -40 40 634 41 hstemhm
          60 47 327 39 hintmask 11101110
          67 350 rmoveto
          -209 -37 117 -148 192 hhcurveto
          1 hlineto
          -18 -102 rlineto
          87 callgsubr
          82 hlineto
          550 callsubr
          rrcurveto
          hintmask 11011110
          13 72 145 11 111 80 67 121 rlinecurve
          -51 hlineto
          hintmask 11101110
          -101 -58 -103 -71 -140 hhcurveto
          -161 -106 121 195 34 hvcurveto
          198 35 149 120 161 hhcurveto
          140 78 -71 -101 22 hvcurveto
          52 hlineto
          131 -27 -95 82 -163 hhcurveto
          -192 -168 -148 -211 -38 hvcurveto
          endchar
        </CharString>
        <CharString name="Cdotaccent">
          172 -7 41 634 41 43 76 hstem
          60 47 350 76 -51 callgsubr
          422 402 -42 callgsubr
        </CharString>
        <CharString name="D">
          89 callsubr
          endchar
        </CharString>
        <CharString name="Dcaron">
          89 callsubr
          341 839 -39 callsubr
        </CharString>
        <CharString name="Dcroat">
          42 callgsubr
        </CharString>
        <CharString name="E">
          345 callsubr
          hstem
          33 479 vstem
          -77 callsubr
          endchar
        </CharString>
        <CharString name="Eacute">
          345 callsubr
          hstem
          33 479 vstem
          -77 callsubr
          241 234 -68 callgsubr
          endchar
        </CharString>
        <CharString name="Ebreve">
          345 callsubr
          56 37 hstem
          33 479 vstem
          -77 callsubr
          276 206 265 callsubr
          endchar
        </CharString>
        <CharString name="Ecaron">
          345 callsubr
          hstem
          33 479 vstem
          -77 callsubr
          279 210 -39 callsubr
        </CharString>
        <CharString name="Ecircumflex">
          345 callsubr
          hstem
          33 479 vstem
          -77 callsubr
          258 93 -28 callgsubr
          endchar
        </CharString>
        <CharString name="Edieresis">
          345 callsubr
          -37 180 hstemhm
          33 479 -287 75 69 76 hintmask 11101000
          -77 callsubr
          hintmask 11010110
          61 104 -96 callsubr
          endchar
        </CharString>
        <CharString name="Edotaccent">
          345 callsubr
          50 76 hstemhm
          33 479 -219 76 hintmask 11101000
          -77 callsubr
          hintmask 11110100
          129 87 -42 callgsubr
        </CharString>
        <CharString name="Egrave">
          345 callsubr
          hstem
          33 479 vstem
          -77 callsubr
          45 234 46 callgsubr
          endchar
        </CharString>
        <CharString name="Emacron">
          345 callsubr
          95 35 hstem
          33 479 vstem
          -77 callsubr
          -19 167 81 callsubr
          endchar
        </CharString>
        <CharString name="Eogonek">
          -107 -196 34 162 389 callgsubr
          hstem
          33 479 vstem
          505 665 rmoveto
          7 37 rlineto
          -354 165 callsubr
          281 hlineto
          -2 -1 -27 callgsubr
          351 callgsubr
          71 31 rcurveline
          7 37 rlineto
          -310 hlineto
          53 297 353 callgsubr
          36 512 callsubr
          52 295 rlineto
          endchar
        </CharString>
        <CharString name="Eth">
          42 callgsubr
        </CharString>
        <CharString name="Euro">
          230 -7 41 212 34 128 34 226 41 hstem
          133 40 vstem
          133 350 rmoveto
          -4 -24 -2 -23 -1 -23 rrcurveto
          -104 293 callsubr
          111 hlineto
          -152 12 108 -101 158 hhcurveto
          162 125 82 131 72 hvcurveto
          -51 hlineto
          -101 -58 -103 -71 -140 hhcurveto
          -130 -94 79 133 -14 hvcurveto
          277 hlineto
          6 34 rlineto
          -284 hlineto
          24 2 22 4 24 vhcurveto
          4 20 4 20 6 18 rrcurveto
          287 hlineto
          5 34 rlineto
          -279 hlineto
          143 59 125 83 135 hhcurveto
          139 78 -71 -101 22 hvcurveto
          51 hlineto
          131 -26 -95 82 -162 hhcurveto
          -164 -145 -106 -161 -64 hvcurveto
          -109 hlineto
          -5 -34 rlineto
          102 hlineto
          -6 -19 -4 -19 -4 -20 rrcurveto
          endchar
        </CharString>
        <CharString name="F">
          -117 21 -21 333 37 295 37 hstem
          33 486 vstem
          158 702 rmoveto
          243 callgsubr
          59 333 rlineto
          277 354 callgsubr
          -277 hlineto
          52 295 rlineto
          316 354 callgsubr
          endchar
        </CharString>
        <CharString name="G">
          472 callgsubr
          hstem
          60 47 vstem
          67 350 -62 callgsubr
          endchar
        </CharString>
        <CharString name="Gbreve">
          472 callgsubr
          50 37 hstem
          60 47 vstem
          67 350 -62 callgsubr
          569 521 265 callsubr
          endchar
        </CharString>
        <CharString name="Gdotaccent">
          472 callgsubr
          44 76 hstem
          60 47 350 76 vstem
          67 350 -62 callgsubr
          422 402 -42 callgsubr
        </CharString>
        <CharString name="H">
          66 0 377 -36 36 -36 361 hstemhm
          33 624 hintmask 00110000
          612 702 rmoveto
          hintmask 01010000
          -58 -325 rlineto
          -409 hlineto
          hintmask 00110000
          58 325 rlineto
          -45 hlineto
          hintmask 10010000
          243 callgsubr
          hintmask 01010000
          61 341 rlineto
          409 hlineto
          hintmask 10010000
          -61 -341 rlineto
          45 hlineto
          hintmask 00110000
          125 702 rlineto
          endchar
        </CharString>
        <CharString name="I">
          -388 411 callsubr
          33 170 vstem
          34 callgsubr
          endchar
        </CharString>
        <CharString name="Iacute">
          -388 411 callsubr
          33 268 vstem
          34 callgsubr
          98 197 -68 callgsubr
          endchar
        </CharString>
        <CharString name="Icircumflex">
          -388 411 callsubr
          33 291 vstem
          34 callgsubr
          115 56 -28 callgsubr
          endchar
        </CharString>
        <CharString name="Idieresis">
          -388 255 callgsubr
          hstemhm
          33 276 -220 75 69 76 hintmask 11100000
          34 callgsubr
          hintmask 11011000
          -82 67 -96 callsubr
          endchar
        </CharString>
        <CharString name="Idotaccent">
          -388 255 callgsubr
          70 76 hstemhm
          33 201 -77 76 hintmask 11110000
          34 callgsubr
          hintmask 11101000
          -14 50 -42 callgsubr
        </CharString>
        <CharString name="Igrave">
          -388 411 callsubr
          33 244 vstem
          34 callgsubr
          -98 197 46 callgsubr
          endchar
        </CharString>
        <CharString name="Imacron">
          -388 255 callgsubr
          115 35 hstem
          33 332 vstem
          34 callgsubr
          -162 130 81 callsubr
          endchar
        </CharString>
        <CharString name="Iogonek">
          -388 562 callsubr
          702 -20 hstem
          -114 317 vstem
          158 702 rmoveto
          -123 -689 -32 -14 -27 callgsubr
          351 callgsubr
          71 31 rcurveline
          -1 2 125 700 rlineto
          endchar
        </CharString>
        <CharString name="Itilde">
          -388 255 callgsubr
          65 461 callgsubr
          33 313 hintmask 11101000
          34 callgsubr
          hintmask 11111000
          -129 47 -11 callgsubr
        </CharString>
        <CharString name="J">
          -135 -7 40 669 -20 hstem
          13 46 vstem
          405 702 rmoveto
          -96 -545 rlineto
          -58 -11 -40 -66 -93 hhcurveto
          -95 -22 69 77 14 hvcurveto
          -45 hlineto
          -115 -20 52 -71 109 hhcurveto
          104 75 69 95 17 hvcurveto
          96 545 rlineto
          endchar
        </CharString>
        <CharString name="K">
          -67 411 callsubr
          33 550 vstem
          526 702 rmoveto
          -382 -333 59 333 rlineto
          -45 331 callsubr
          59 329 264 -329 rlineto
          59 hlineto
          -281 350 404 352 rlineto
          endchar
        </CharString>
        <CharString name="L">
          -190 0 36 666 -20 hstem
          33 313 394 callgsubr
          endchar
        </CharString>
        <CharString name="Lacute">
          -190 0 36 666 -20 hstem
          33 371 394 callgsubr
          319 863 -68 callgsubr
          endchar
        </CharString>
        <CharString name="Lcaron">
          -185 0 36 498 28 75 65 hstem
          352.5 597 callsubr
          vstem
          393 702 rmoveto
          -68 hlineto
          -12 -65 rlineto
          42 hlineto
          -5 -27 rlineto
          -31 -5 -15 -17 -34 hhcurveto
          -5 456 callgsubr
          4 21 2 24 1 32 rrcurveto
          -190 hmoveto
          450 callsubr
        </CharString>
        <CharString name="Ldot">
          -190 0 36 271 76 319 -20 hstemhm
          33 331 -77 76 hintmask 11110000
          33 hmoveto
          306 hlineto
          7 36 rlineto
          -261 hlineto
          118 666 rlineto
          -45 hlineto
          hintmask 11101000
          161 -395 rmoveto
          21 20 17 21 3 hvcurveto
          21 4 -14 17 -20 hhcurveto
          -21 -21 -17 -21 -4 hvcurveto
          -21 -3 14 -17 21 hhcurveto
          endchar
        </CharString>
        <CharString name="Lslash">
          -175 0 36 666 -20 hstem
          14 350 vstem
          221 702 rmoveto
          -46 hlineto
          -57 -320 -97 -39 -7 -44 97 39 -60 -338 rlineto
          306 hlineto
          7 36 rlineto
          -261 hlineto
          57 322 153 61 8 44 -153 -61 rlineto
          endchar
        </CharString>
        <CharString name="M">
          222 0 60 -39 -21 hstemhm
          33 777 hintmask 01100000
          155 687 rmoveto
          -122 -687 rlineto
          45 hlineto
          105 590 160 -590 rlineto
          36 hlineto
          370 594 -106 -594 rlineto
          45 hlineto
          122 687 rlineto
          -47 hlineto
          hintmask 10100000
          -391 -627 -170 627 rlineto
          endchar
        </CharString>
        <CharString name="N">
          42 callsubr
          endchar
        </CharString>
        <CharString name="NULL">
          -598 endchar
        </CharString>
        <CharString name="Nacute">
          42 callsubr
          -5 899 -68 callgsubr
          endchar
        </CharString>
        <CharString name="Ncaron">
          42 callsubr
          33 875 -39 callsubr
        </CharString>
        <CharString name="Ntilde">
          69 0 75 -54 -21 628 73 0 -20 66 461 callgsubr
          33 626 hintmask 01011010
          659 701 rmoveto
          -45 hlineto
          hintmask 10011010
          -110 -626 -302 626 rlineto
          -45 hlineto
          -124 -701 rlineto
          45 hlineto
          hintmask 01101110
          111 628 301 -628 rlineto
          45 hlineto
          -232 749 71 callgsubr
          hintmask 01011010
          -54 callgsubr
          hintmask 01011110
          -45 -5 49 -52 hhcurveto
          hintmask 01101110
          -40 -33 -30 -50 -15 hvcurveto
          endchar
        </CharString>
        <CharString name="O">
          435 callsubr
          hstem
          62 46 599 47 vstem
          -98 callsubr
          endchar
        </CharString>
        <CharString name="OE">
          501 -8 41 -33 37 296 37 295 37 -34 40 hstemhm
          60 47 603 19 hintmask 01110110
          804 665 rmoveto
          309 hlineto
          8 37 rlineto
          -355 hlineto
          -37 -206 rlineto
          hintmask 10101110
          130 -16 -102 82 -142 hhcurveto
          -193 -172 -147 -211 -37 hvcurveto
          -210 -37 119 -148 194 hhcurveto
          141 132 83 131 62 hvcurveto
          hintmask 01110110
          -37 -206 rlineto
          355 354 callgsubr
          -309 hlineto
          52 296 353 callgsubr
          37 512 callsubr
          hintmask 10101110
          -638 -20 rmoveto
          197 35 150 121 165 hhcurveto
          165 109 -121 -197 -35 hvcurveto
          -196 -35 -151 -121 -165 hhcurveto
          -165 -108 121 196 35 hvcurveto
          endchar
        </CharString>
        <CharString name="Oacute">
          435 callsubr
          hstem
          62 46 599 47 vstem
          -98 callsubr
          247 868 -68 callgsubr
          endchar
        </CharString>
        <CharString name="Ocircumflex">
          435 callsubr
          hstem
          62 46 599 47 vstem
          -98 callsubr
          263 727 -28 callgsubr
          endchar
        </CharString>
        <CharString name="Odieresis">
          435 callsubr
          hstem
          62 46 278 75 69 76 101 47 vstem
          -98 callsubr
          66 738 -96 callsubr
          endchar
        </CharString>
        <CharString name="Ograve">
          435 callsubr
          hstem
          62 46 599 47 vstem
          -98 callsubr
          51 868 46 callgsubr
          endchar
        </CharString>
        <CharString name="Ohungarumlaut">
          435 callsubr
          39 122 hstem
          62 46 599 47 vstem
          -98 callsubr
          306 836 140 callsubr
        </CharString>
        <CharString name="Omacron">
          435 callsubr
          91 35 hstem
          62 46 599 47 vstem
          -98 callsubr
          -14 801 81 callsubr
          endchar
        </CharString>
        <CharString name="Oslash">
          192 -8 41 -12 -21 668 40 -6 -20 hstemhm
          62 46 599 47 hintmask 10101100
          346 -8 rmoveto
          232 176 196 236 69 -18 60 -34 47 hvcurveto
          hintmask 10011100
          112 102 rlineto
          -42 hlineto
          hintmask 01101100
          -88 -80 rlineto
          54 -49 -74 32 -91 hhcurveto
          -232 -176 -196 -235 -69 18 -60 34 -47 hvcurveto
          -111 -101 rlineto
          42 hlineto
          hintmask 10101100
          86 79 rlineto
          -55 50 74 -32 91 hhcurveto
          -238 288 rmoveto
          205 147 183 208 79 65 -27 -50 43 vhcurveto
          -502 -458 rlineto
          -26 39 -14 49 59 vvcurveto
          244 -247 rmoveto
          -78 -65 27 50 -44 hvcurveto
          503 458 rlineto
          25 -39 14 -49 -58 vvcurveto
          -209 -149 -180 -206 vhcurveto
          endchar
        </CharString>
        <CharString name="Otilde">
          435 callsubr
          41 461 callgsubr
          62 46 599 47 hintmask 11101100
          -98 callsubr
          hintmask 11111100
          20 718 71 callgsubr
          hintmask 11101100
          -54 callgsubr
          hintmask 11111100
          49 callgsubr
          endchar
        </CharString>
        <CharString name="P">
          -52 21 -21 308 39 316 39 hstem
          505 46 vstem
          289 347 536 callgsubr
          40 -60 -99 -19 hvcurveto
          -95 -16 533 callgsubr
          -54 82 -162 hhcurveto
          -194 331 callsubr
          55 308 rlineto
          149 hlineto
          155 89 74 122 21 hvcurveto
          endchar
        </CharString>
        <CharString name="Q">
          193 413 callsubr
          hstem
          62 46 599 47 vstem
          352 33 rmoveto
          -144 -100 93 154 205 147 183 208 145 99 -92 -154 -209 -149 -180 -206 hvcurveto
          -6 -41 rmoveto
          39 38 6 10 36 hvcurveto
          150 -151 rlineto
          64 hlineto
          -167 168 rlineto
          148 66 100 155 178 vvcurveto
          169 -110 115 -174 -232 -176 -196 -235 -170 111 -115 173 vhcurveto
          endchar
        </CharString>
        <CharString name="R">
          -32 callgsubr
          endchar
        </CharString>
        <CharString name="Racute">
          -32 callgsubr
          147 197 -68 callgsubr
          endchar
        </CharString>
        <CharString name="Rcaron">
          -32 callgsubr
          185 173 -39 callsubr
        </CharString>
        <CharString name="S">
          -51 -7 38 640 38 hstem
          39 45 340 46 vstem
          241 -7 rmoveto
          136 -63 callgsubr
          -99 -8 71 -81 139 hhcurveto
          endchar
        </CharString>
        <CharString name="Sacute">
          -51 -7 38 640 38 hstem
          39 45 340 46 vstem
          241 -7 rmoveto
          136 -63 callgsubr
          -99 -8 71 -81 139 hhcurveto
          232 906 -68 callgsubr
          endchar
        </CharString>
        <CharString name="Scaron">
          -51 -7 38 640 38 hstem
          39 45 340 46 vstem
          241 -7 rmoveto
          136 -63 callgsubr
          -99 -8 71 -81 139 hhcurveto
          270 882 -39 callsubr
        </CharString>
        <CharString name="T">
          -103 21 -21 665 37 hstem
          93 452 vstem
          100 702 191 callsubr
          endchar
        </CharString>
        <CharString name="Tcaron">
          -103 21 -21 665 37 hstem
          93 452 vstem
          100 702 191 callsubr
          -63 173 -39 callsubr
        </CharString>
        <CharString name="Thorn">
          -52 21 -21 154 40 316 38 -38 192 hstemhm
          479 45 hintmask 11101000
          262 194 536 callgsubr
          39 -60 -99 -17 hvcurveto
          -95 -17 533 callgsubr
          -55 81 -161 hhcurveto
          -150 hlineto
          hintmask 11011000
          27 154 rlineto
          -44 331 callsubr
          27 154 rlineto
          150 hlineto
          hintmask 11101000
          155 89 75 122 21 hvcurveto
          endchar
        </CharString>
        <CharString name="U">
          458 callgsubr
          hstem
          69 46 vstem
          -94 callsubr
          endchar
        </CharString>
        <CharString name="Uacute">
          458 callgsubr
          hstem
          69 46 vstem
          -94 callsubr
          320 197 -68 callgsubr
          endchar
        </CharString>
        <CharString name="Ubreve">
          458 callgsubr
          76 37 hstem
          69 46 vstem
          -94 callsubr
          355 169 265 callsubr
          endchar
        </CharString>
        <CharString name="Ucircumflex">
          458 callgsubr
          hstem
          69 46 vstem
          -94 callsubr
          336 56 -28 callgsubr
          endchar
        </CharString>
        <CharString name="Udieresis">
          458 callgsubr
          hstem
          69 46 191 75 69 76 vstem
          -94 callsubr
          139 67 -96 callsubr
          endchar
        </CharString>
        <CharString name="Ugrave">
          458 callgsubr
          hstem
          69 46 vstem
          -94 callsubr
          124 197 46 callgsubr
          endchar
        </CharString>
        <CharString name="Uhungarumlaut">
          458 callgsubr
          63 122 hstem
          69 46 vstem
          -94 callsubr
          379 165 140 callsubr
        </CharString>
        <CharString name="Umacron">
          458 callgsubr
          115 35 hstem
          69 46 vstem
          -94 callsubr
          59 130 81 callsubr
          endchar
        </CharString>
        <CharString name="Uogonek">
          47 -196 34 156 39 669 -20 hstem
          69 46 vstem
          154 702 rmoveto
          -78 -438 -31 -180 80 -82 127 -8 rlinecurve
          -67 -31 -29 -36 -7 -40 rrcurveto
          4 callsubr
          351 callgsubr
          69 30 rcurveline
          111 22 87 83 28 160 78 438 rcurveline
          -45 hlineto
          545 callgsubr
          -167 -29 -93 -64 -116 hhcurveto
          -116 -73 64 167 29 hvcurveto
          78 438 rlineto
          endchar
        </CharString>
        <CharString name="Uring">
          458 callgsubr
          74 29 133 29 hstem
          69 46 vstem
          -94 callsubr
          129 149 2 callsubr
          endchar
        </CharString>
        <CharString name="Utilde">
          458 callgsubr
          65 461 callgsubr
          69 46 hintmask 11101000
          -94 callsubr
          hintmask 11111000
          93 47 -11 callgsubr
        </CharString>
        <CharString name="V">
          41 0 57 -36 416 callsubr
          hstemhm
          102 585 hintmask 01110000
          102 702 rmoveto
          143 -702 rlineto
          50 hlineto
          392 702 rlineto
          -50 hlineto
          hintmask 10110000
          -357 -645 -127 645 rlineto
          endchar
        </CharString>
        <CharString name="W">
          210 callsubr
          -25 callgsubr
          endchar
        </CharString>
        <CharString name="Wacute">
          210 callsubr
          -25 callgsubr
          572 213 -68 callgsubr
          endchar
        </CharString>
        <CharString name="Wcircumflex">
          210 callsubr
          -25 callgsubr
          496 72 -28 callgsubr
          endchar
        </CharString>
        <CharString name="Wdieresis">
          210 callsubr
          -552 75 69 76 -25 callgsubr
          hintmask 10101100
          298 82 -96 callsubr
          endchar
        </CharString>
        <CharString name="Wgrave">
          210 callsubr
          -25 callgsubr
          212 212 46 callgsubr
          endchar
        </CharString>
        <CharString name="X">
          -55 411 callsubr
          -14 597 vstem
          407 hmoveto
          51 hlineto
          -148 351 273 351 rlineto
          -51 hlineto
          -239 -311 -131 311 rlineto
          -51 hlineto
          147 -348 -272 -354 rlineto
          51 hlineto
          237 315 rlineto
          endchar
        </CharString>
        <CharString name="Y">
          -57 411 callsubr
          101 490 vstem
          -1 callsubr
          endchar
        </CharString>
        <CharString name="Yacute">
          -57 411 callsubr
          101 490 vstem
          -1 callsubr
          315 197 -68 callgsubr
          endchar
        </CharString>
        <CharString name="Ycircumflex">
          -57 411 callsubr
          101 490 vstem
          -1 callsubr
          332 56 -28 callgsubr
          endchar
        </CharString>
        <CharString name="Ydieresis">
          -57 255 callgsubr
          hstemhm
          101 490 -335 75 69 76 hintmask 11100000
          -1 callsubr
          hintmask 11011000
          135 67 -96 callsubr
          endchar
        </CharString>
        <CharString name="Ygrave">
          -57 411 callsubr
          101 490 vstem
          -1 callsubr
          119 197 46 callgsubr
          endchar
        </CharString>
        <CharString name="Z">
          -92 0 40 621 41 hstem
          -10 545 vstem
          69 callsubr
          endchar
        </CharString>
        <CharString name="Zacute">
          -92 0 40 621 41 hstem
          -10 545 vstem
          69 callsubr
          400 859 -68 callgsubr
          endchar
        </CharString>
        <CharString name="Zcaron">
          -92 0 40 621 41 hstem
          -10 545 vstem
          69 callsubr
          438 835 -39 callsubr
        </CharString>
        <CharString name="Zdotaccent">
          -92 0 40 621 41 50 76 hstemhm
          -10 545 -229 76 hintmask 11010000
          69 callsubr
          hintmask 11101000
          288 712 -42 callgsubr
        </CharString>
        <CharString name="a">
          145 callsubr
          350 callgsubr
          hintmask 10101100
          -6 callgsubr
          hintmask 01011100
          48 callsubr
          hintmask 10101100
          82 -16 -68 -93 callsubr
          endchar
        </CharString>
        <CharString name="a.ss02">
          -14 145 callgsubr
          412 callgsubr
          hintmask 10111100
          431 128 rmoveto
          hintmask 01111100
          -89 callgsubr
          hintmask 10111100
          -66 callgsubr
        </CharString>
        <CharString name="aacute">
          145 callsubr
          232 -20 350 callgsubr
          hintmask 10101110
          -6 callgsubr
          hintmask 01011110
          48 callsubr
          hintmask 10101110
          82 -16 -68 -93 callsubr
          -35 483 -68 callgsubr
          endchar
        </CharString>
        <CharString name="aacute.ss02">
          -14 145 callgsubr
          204 -20 412 callgsubr
          hintmask 10111110
          510 517 callgsubr
          -71 -583 rmoveto
          hintmask 01111110
          -89 callgsubr
          hintmask 10111110
          -66 callgsubr
        </CharString>
        <CharString name="abreve">
          145 callsubr
          91 37 350 callgsubr
          hintmask 10101110
          -6 callgsubr
          hintmask 01011110
          48 callsubr
          hintmask 10101110
          82 -16 -68 -93 callsubr
          455 vmoveto
          -86 callsubr
          endchar
        </CharString>
        <CharString name="abreve.ss02">
          -14 145 callgsubr
          63 37 412 callgsubr
          hintmask 10111110
          544 727 265 callsubr
          -113 -599 rmoveto
          hintmask 01111110
          -89 callgsubr
          hintmask 10111110
          -66 callgsubr
        </CharString>
        <CharString name="acircumflex">
          145 callsubr
          350 callgsubr
          hintmask 10101100
          -6 callgsubr
          hintmask 01011100
          48 callsubr
          hintmask 10101100
          82 -16 -68 -93 callsubr
          -18 342 -28 callgsubr
          endchar
        </CharString>
        <CharString name="acircumflex.ss02">
          -14 145 callgsubr
          412 callgsubr
          hintmask 10111100
          525 614 -28 callgsubr
          20 -568 rmoveto
          hintmask 01111100
          -89 callgsubr
          hintmask 10111100
          -66 callgsubr
        </CharString>
        <CharString name="acute">
          -338 755 -20 hstem
          87 226 vstem
          313 517 callgsubr
          endchar
        </CharString>
        <CharString name="adieresis">
          145 callsubr
          102 76 hstemhm
          47 47 204 75 69 76 32 18 hintmask 1010110010000000
          -6 callgsubr
          hintmask 0101110010000000
          48 callsubr
          hintmask 1010110010000000
          82 -16 -68 -93 callsubr
          hintmask 1010111110000000
          -215 353 -96 callsubr
          endchar
        </CharString>
        <CharString name="adieresis.ss02">
          -14 145 callgsubr
          74 76 hstemhm
          31 45 220 75 69 76 -48 46 hintmask 1011111010000000
          328 625 -47 callgsubr
          hintmask 1011111100000000
          144 hmoveto
          22 22 21 24 17 -13 -64 callgsubr
          -41 -497 rmoveto
          hintmask 0111111010000000
          -89 callgsubr
          hintmask 1011111010000000
          -89 61 -51 94 vhcurveto
          hintmask 1011111100000000
          112 88 60 78 45 hvcurveto
          -230 -99 rmoveto
          hintmask 1011111010000000
          -76 -49 40 67 85 70 62 117 hvcurveto
          194 hlineto
          -5 -33 rlineto
          hintmask 1011111100000000
          -137 -25 -110 -84 549 callsubr
        </CharString>
        <CharString name="ae">
          524 481 callgsubr
          510 callsubr
          34 449 45 hintmask 0101001111000000
          295 callgsubr
          hintmask 1001010111000000
          226 callsubr
          hintmask 0100100111000000
          26 149 rlineto
          -43 604 callsubr
          rlineto
          hintmask 0101010111000000
          295 callsubr
          hintmask 0011010111000000
          -27 -150 rlineto
          43 hlineto
          308 callsubr
          hintmask 0101010111000000
          -104 13 83 -55 105 hhcurveto
          hintmask 0101001111000000
          137 102 79 107 41 hvcurveto
          hintmask 0101010111000000
          -948 94 rmoveto
          150 26 108 89 225 callgsubr
          80 -94 -145 -26 hvcurveto
          -147 -26 -113 -93 -127 hhcurveto
          -131 -75 90 150 26 hvcurveto
          endchar
        </CharString>
        <CharString name="agrave">
          145 callsubr
          232 -20 350 callgsubr
          hintmask 10101110
          -6 callgsubr
          hintmask 01011110
          48 callsubr
          hintmask 10101110
          82 -16 -68 -93 callsubr
          -231 483 46 callgsubr
          endchar
        </CharString>
        <CharString name="agrave.ss02">
          -14 145 callgsubr
          204 -20 412 callgsubr
          hintmask 10111110
          313 755 46 callgsubr
          -54 -496 rmoveto
          hintmask 01111110
          -89 callgsubr
          hintmask 10111110
          -66 callgsubr
        </CharString>
        <CharString name="amacron">
          145 callsubr
          130 35 350 callgsubr
          hintmask 10101110
          -6 callgsubr
          hintmask 01011110
          48 callsubr
          hintmask 10101110
          82 -16 -68 -93 callsubr
          -295 416 81 callsubr
          endchar
        </CharString>
        <CharString name="amacron.ss02">
          -13 145 callgsubr
          102 35 412 callgsubr
          hintmask 10111110
          248 688 81 callsubr
          -141 -560 rmoveto
          hintmask 01111110
          -89 callgsubr
          hintmask 10111110
          -66 callgsubr
        </CharString>
        <CharString name="ampersand">
          101 -11 40 -8 -21 671 39 hstemhm
          26 45 111 46 240 45 hintmask 01111100
          466 567 rmoveto
          45 hlineto
          1 8 1 9 8 vvcurveto
          73 -59 45 -81 -110 -81 -72 -100 -43 17 -37 35 -44 vhcurveto
          -125 -44 -83 -88 -115 vvcurveto
          hintmask 10111100
          -107 80 -71 121 97 78 36 78 81 vhcurveto
          hintmask 01111100
          83 -103 rlineto
          56 hlineto
          -108 135 29 31 29 36 31 41 rlinecurve
          89 118 rlineto
          -49 hlineto
          -73 -95 -28 -38 -27 -33 -26 -29 rlinecurve
          -209 262 rlineto
          -33 42 -19 35 39 vvcurveto
          74 60 53 80 56 44 -30 -55 -6 -1 -7 -1 -6 vhcurveto
          hintmask 10111100
          -234 -538 rmoveto
          -98 -63 59 84 102 75 71 111 39 hvcurveto
          1 hlineto
          200 -250 rlineto
          -72 -73 -69 -33 -84 hhcurveto
          endchar
        </CharString>
        <CharString name="ampersand.ss03">
          66 -7 39 -11 -21 354 38 288 39 hstemhm
          21 43 157 45 249 45 hintmask 10111110
          415 719 rmoveto
          -109 -69 -75 -76 -13 hvcurveto
          -12 -69 26 -44 35 -47 21 -27 rcurveline
          7 -14 -18 4 -20 hhcurveto
          -99 -96 -69 -127 -22 hvcurveto
          -127 -23 80 -76 107 hhcurveto
          107 93 77 104 23 hvcurveto
          2 10 1 8 1 9 rrcurveto
          hintmask 01111110
          144 -201 rlineto
          54 hlineto
          -310 442 -27 39 -18 32 10 54 rlinecurve
          59 10 52 54 77 hhcurveto
          78 40 -50 -78 -14 hvcurveto
          -2 -9 -2 -10 -4 -10 rrcurveto
          44 hlineto
          5 11 2 12 2 11 rrcurveto
          hintmask 10111110
          80 14 -36 82 -120 hhcurveto
          -348 -522 rmoveto
          102 18 73 55 81 hhcurveto
          81 72 -71 -97 -17 hvcurveto
          -88 -15 -76 -66 -87 hhcurveto
          -85 -64 61 104 19 hvcurveto
          endchar
        </CharString>
        <CharString name="aogonek">
          75 -196 34 154 40 -11 -21 511 39 -7 -20 350 callgsubr
          hintmask 11010110
          -6 callgsubr
          -23 -130 -33 -14 -27 callgsubr
          hintmask 10101110
          351 callgsubr
          71 31 rcurveline
          -1 2 97 541 rlineto
          -45 hlineto
          -25 -142 rlineto
          hintmask 11010110
          82 -16 -68 -93 callsubr
          endchar
        </CharString>
        <CharString name="aogonek.ss02">
          -14 -196 34 152 39 254 35 195 38 hstem
          31 45 392 46 vstem
          431 128 rmoveto
          -21 -115 -33 -14 -27 callgsubr
          351 callgsubr
          71 31 rcurveline
          55 316 rlineto
          4 22 2 21 18 vvcurveto
          115 -68 59 -111 -131 -84 -82 -108 -36 vhcurveto
          43 hlineto
          96 33 73 56 94 hhcurveto
          95 46 -48 -94 -16 -2 -18 -3 -19 hvcurveto
          -195 hlineto
          -136 -101 -73 -115 -89 61 -51 94 112 88 60 78 45 hvcurveto
          -230 -99 rmoveto
          -76 -49 40 67 85 70 62 117 hvcurveto
          194 hlineto
          -5 -33 rlineto
          -137 -25 -110 -84 549 callsubr
        </CharString>
        <CharString name="apostrophemod.ss01">
          -462 588 28 75 65 hstem
          144 40 vstem
          184 756 rmoveto
          140 callgsubr
        </CharString>
        <CharString name="approxequal">
          -148 244 42 24 43 79 42 24 43 hstemhm
          38 390 hintmask 11101000
          38 244 rmoveto
          405 callsubr
          hintmask 10101000
          284 callsubr
          hintmask 11101000
          -58 -43 -40 -69 -25 hvcurveto
          hintmask 10111000
          188 vmoveto
          405 callsubr
          hintmask 10101000
          284 callsubr
          hintmask 10111000
          -58 -43 -40 -69 -25 hvcurveto
          endchar
        </CharString>
        <CharString name="aring">
          145 callsubr
          89 29 133 29 350 callgsubr
          hintmask 10101111
          -6 callgsubr
          hintmask 01011111
          48 callsubr
          hintmask 10101111
          82 -16 -68 -93 callsubr
          -225 435 2 callsubr
          endchar
        </CharString>
        <CharString name="aring.ss02">
          -14 145 callgsubr
          61 29 133 29 412 callgsubr
          hintmask 10111111
          318 707 2 callsubr
          -47 -580 rmoveto
          hintmask 01111111
          -89 callgsubr
          hintmask 10111111
          -66 callgsubr
        </CharString>
        <CharString name="asciicircum">
          -19 172 514 hstem
          21 501 vstem
          353 628 rmoveto
          123 -456 rlineto
          46 hlineto
          -141 514 rlineto
          -38 hlineto
          -322 -514 rlineto
          46 hlineto
          endchar
        </CharString>
        <CharString name="asciitilde">
          -148 268 42 24 43 hstemhm
          38 390 vstemhm
          38 268 rmoveto
          405 callsubr
          hintmask 10100000
          284 callsubr
          hintmask 11100000
          -58 -43 -40 -69 -25 hvcurveto
          endchar
        </CharString>
        <CharString name="asterisk">
          -149 546 -20 hstem
          91 364 vstem
          291 567 rmoveto
          35 163 rlineto
          -38 hlineto
          -22 -163 -124 84 -23 -32 130 -73 -158 -71 15 -36 152 85 -35 -164 rlineto
          38 hlineto
          22 164 123 -84 23 33 -131 73 157 71 -13 34 rlineto
          endchar
        </CharString>
        <CharString name="at">
          383 -191 35 150 34 -34 37 374 36 155 34 hstemhm
          67 39 162 43 301 36 -16 15 215 39 hintmask 1101111101000000
          415 -191 rmoveto
          64 63 12 22 56 hvcurveto
          -8 34 rlineto
          -22 -50 -57 -11 -57 hhcurveto
          -195 -125 110 191 hvcurveto
          249 1 185 202 247 hhcurveto
          197 126 -117 -185 -122 -55 -144 -95 -52 -20 44 63 11 hvcurveto
          hintmask 1011111011000000
          52 293 rlineto
          -40 hlineto
          -16 -90 rlineto
          67 -16 -51 36 -73 hhcurveto
          -142 -97 -132 -145 -103 59 -67 101 hvcurveto
          hintmask 1011111101000000
          73 70 39 69 41 hvcurveto
          hintmask 1101111101000000
          -63 -2 30 -45 66 hhcurveto
          124 71 154 151 195 -143 136 -213 -275 -203 -216 -275 -202 142 -128 206 hvcurveto
          91 596 rmoveto
          hintmask 1011111011000000
          99 40 -80 -98 -16 hvcurveto
          -124 -18 -80 -72 -91 hhcurveto
          -83 -46 54 85 hvcurveto
          hintmask 1101111101000000
          118 75 117 120 vhcurveto
          endchar
        </CharString>
        <CharString name="atilde">
          145 callsubr
          80 33 16 33 350 callgsubr
          hintmask 10101011
          -6 callgsubr
          hintmask 01011011
          48 callsubr
          hintmask 10101011
          82 -16 -68 -93 callsubr
          hintmask 10101111
          -262 333 71 callgsubr
          hintmask 10101011
          -54 callgsubr
          hintmask 10101111
          49 callgsubr
          endchar
        </CharString>
        <CharString name="atilde.ss02">
          -14 145 callgsubr
          52 33 16 33 412 callgsubr
          hintmask 10111111
          282 605 71 callgsubr
          hintmask 10111011
          -54 callgsubr
          hintmask 10111111
          49 callgsubr
          hintmask 10111011
          149 -477 rmoveto
          hintmask 01111011
          -89 callgsubr
          hintmask 10111011
          -66 callgsubr
        </CharString>
        <CharString name="b">
          75 -8 40 -11 -21 511 39 190 -20 hstemhm
          103 18 456 47 hintmask 10111100
          149 400 rmoveto
          60 340 rlineto
          -45 hlineto
          hintmask 01111100
          244 callgsubr
          25 142 rlineto
          hintmask 10111100
          -83 17 68 -67 119 399 callsubr
          -92 -66 -84 -46 hvcurveto
          423 -128 115 callsubr
        </CharString>
        <CharString name="backslash">
          -135 -161 1098 hstem
          144 181 vstem
          325 -161 rmoveto
          -134 1098 rlineto
          -47 hlineto
          136 -1098 rlineto
          endchar
        </CharString>
        <CharString name="bar">
          -372 -93 877 hstem
          25 200 vstem
          225 784 rmoveto
          -45 hlineto
          -155 -877 rlineto
          45 hlineto
          endchar
        </CharString>
        <CharString name="braceleft">
          -244 -186 40 1037 40 hstemhm
          80.5 41.5 -35 45 35 44 hintmask 11101000
          77 352 rmoveto
          70 -20 20 -24 -47 vvcurveto
          hintmask 11011000
          -73 -80 -187 -82 vvcurveto
          -73 46 -32 75 vhcurveto
          41 442 callsubr
          -35 hlineto
          -56 -33 21 50 hvcurveto
          76 79 185 81 vvcurveto
          hintmask 11101000
          57 -27 28 -62 20 vhcurveto
          2 vlineto
          84 17 41 55 13 77 14 78 -8 96 15 90 rrcurveto
          76 14 43 28 66 hhcurveto
          34 442 callsubr
          -40 hlineto
          -87 -63 -42 -100 -17 hvcurveto
          -17 -90 11 -92 -15 -83 -11 -58 -26 -48 -96 -25 rrcurveto
          endchar
        </CharString>
        <CharString name="braceright">
          -244 -186 40 1037 40 hstemhm
          179 44 34 45 -30 36.5 hintmask 11101000
          305 352 rmoveto
          7 41 -91 27 -3 58 8 46 rlinecurve
          15 82 41 93 17 90 rrcurveto
          hintmask 11110000
          100 17 -48 42 -87 hhcurveto
          -40 hlineto
          -7 -40 rlineto
          34 hlineto
          66 33 -28 -76 -13 hvcurveto
          hintmask 11101000
          -15 -90 -43 -96 -14 -78 -12 -72 23 -58 79 -19 rrcurveto
          -2 vlineto
          -86 -20 -45 -58 -12 -72 -14 -78 9 -96 -16 -90 rrcurveto
          -76 -13 -44 -28 -65 hhcurveto
          -35 hlineto
          -7 -40 rlineto
          41 hlineto
          86 63 42 100 18 hvcurveto
          16 90 -10 93 15 82 8 47 23 57 101 27 rrcurveto
          endchar
        </CharString>
        <CharString name="bracketleft">
          -298 -183 39 1042 39 hstem
          21 322 vstem
          218 937 rmoveto
          -197 -1120 rlineto
          124 hlineto
          7 39 rlineto
          -81 hlineto
          184 1042 rlineto
          81 hlineto
          7 39 rlineto
          endchar
        </CharString>
        <CharString name="bracketright">
          -298 -185 38 1043 38 hstem
          -7 322 vstem
          315 934 rmoveto
          -125 hlineto
          -6 -38 rlineto
          81 hlineto
          -184 -1043 rlineto
          -81 hlineto
          -7 -38 rlineto
          125 hlineto
          endchar
        </CharString>
        <CharString name="breve">
          -281 614 37 hstem
          109 257 vstem
          365 727 265 callsubr
          endchar
        </CharString>
        <CharString name="brokenbar">
          -372 -93 361 hstem
          25 200 vstem
          134 268 rmoveto
          -45 hlineto
          -64 -361 rlineto
          45 hlineto
          46 517 rmoveto
          45 hlineto
          64 360 rlineto
          -45 hlineto
          endchar
        </CharString>
        <CharString name="bullet">
          -287 227 214 hstem
          57 217 vstem
          146 227 rmoveto
          61 55 47 59 10 hvcurveto
          60 11 -39 48 -60 hhcurveto
          -58 -57 -48 -60 -10 hvcurveto
          -59 -11 40 -47 58 hhcurveto
          endchar
        </CharString>
        <CharString name="c">
          23 351 callsubr
          hstem
          47 46 441 -38 callgsubr
          endchar
        </CharString>
        <CharString name="cacute">
          23 351 callsubr
          205 -20 hstem
          47 46 441 -38 callgsubr
          431 483 -68 callgsubr
          endchar
        </CharString>
        <CharString name="caron">
          -277 611 120 hstem
          105 265 vstem
          370 731 -39 callsubr
        </CharString>
        <CharString name="ccaron">
          23 351 callsubr
          hstem
          47 46 441 -38 callgsubr
          468 459 -39 callsubr
        </CharString>
        <CharString name="ccedilla">
          23 412 callsubr
          70 39 -38 38 481 38 hstemhm
          47 46 249 39 153 47 hintmask 11101100
          53 272 rmoveto
          hintmask 11011110
          -30 -167 84 -104 141 -8 -18 -102 421 callgsubr
          82 hlineto
          550 callsubr
          rrcurveto
          hintmask 11101101
          12 70 131 6 97 76 40 107 rlinecurve
          -48 hlineto
          -94 -35 -88 -56 -106 hhcurveto
          -115 -88 77 164 29 hvcurveto
          163 29 115 77 115 hhcurveto
          106 69 -57 -93 1 hvcurveto
          47 hlineto
          113 -1 -76 75 -139 hhcurveto
          hintmask 11101100
          -152 -129 -105 601 callsubr
          endchar
        </CharString>
        <CharString name="cdotaccent">
          23 351 callsubr
          59 76 hstem
          47 46 246 76 119 -38 callgsubr
          318 337 -42 callgsubr
        </CharString>
        <CharString name="cedilla">
          -341 412 callsubr
          hstemhm
          -62 210 -40 39 hintmask 11100000
          36 -78 rmoveto
          15 85 rlineto
          -35 hlineto
          -20 -116 rlineto
          hintmask 11010000
          87 callgsubr
          82 hlineto
          70 48 37 55 9 hvcurveto
          hintmask 11100000
          459 callsubr
          rrcurveto
          endchar
        </CharString>
        <CharString name="cent">
          17 17 38 425 38 hstem
          55 43 407 43 vstem
          346 619 rmoveto
          -18 -102 -137 -10 -105 -96 -26 -144 rlinecurve
          -25 -144 71 -97 135 -9 -20 -109 rcurveline
          32 hlineto
          19 108 125 4 93 77 35 106 rlinecurve
          -43 hlineto
          -92 -33 -80 -56 -100 hhcurveto
          -109 -82 68 144 25 hvcurveto
          144 26 106 69 108 hhcurveto
          100 62 -57 -91 hvcurveto
          43 hlineto
          3 106 -67 76 -124 4 18 101 rcurveline
          endchar
        </CharString>
        <CharString name="circumflex">
          -277 614 120 hstem
          92 263 vstem
          349 614 -28 callgsubr
          endchar
        </CharString>
        <CharString name="colon">
          -448 226 callgsubr
          444 vmoveto
          358 callsubr
        </CharString>
        <CharString name="colon.ss01">
          -441 0 71 374 71 hstem
          -8 162 vstem
          5 468 callgsubr
          7 445 582 callgsubr
        </CharString>
        <CharString name="comma">
          -455 -151 256 hstem
          -91 173 vstem
          30 105 492 callsubr
        </CharString>
        <CharString name="comma.ss01">
          -455 -100 28 68 57 248 callgsubr
          endchar
        </CharString>
        <CharString name="copyright">
          201 -1 25 -25 116 37 399 -283 166 153 116 -26 26 hstemhm
          62 29 -29 133 540 28 hintmask 1000011010000000
          475 703 rmoveto
          -204 -165 -146 -206 -37 hvcurveto
          -206 -36 114 -146 205 hhcurveto
          203 165 146 206 36 hvcurveto
          206 37 -114 146 -204 hhcurveto
          -4 -26 rmoveto
          193 98 -136 -190 -34 hvcurveto
          -189 -33 -146 -138 -193 hhcurveto
          -194 -98 138 189 33 hvcurveto
          190 34 146 136 194 hhcurveto
          hintmask 1001101010000000
          -15 -90 rmoveto
          94 73 -53 -100 10 hvcurveto
          -43 hlineto
          hintmask 1010011010000000
          77 -11 -58 40 -71 hhcurveto
          -92 -93 -67 -134 -24 hvcurveto
          -131 -23 70 -67 92 hhcurveto
          hintmask 0101010110000000
          73 69 39 77 39 hvcurveto
          43 hlineto
          -98 -45 -92 -55 -94 hhcurveto
          -116 -84 84 153 27 hvcurveto
          hintmask 1001101010000000
          152 27 114 83 115 hhcurveto
          endchar
        </CharString>
        <CharString name="currency">
          -84 203 31 286 31 hstemhm
          112 39 248 36 -36 39 hintmask 11101000
          299 520 rmoveto
          64 49 -54 -89 -16 hvcurveto
          -91 -16 -68 -52 -63 hhcurveto
          -68 -43 52 91 16 hvcurveto
          89 16 62 54 67 hhcurveto
          hintmask 11110000
          104 -337 rmoveto
          28 23 -51 60 27 29 20 38 8 44 rlinecurve
          8 45 -7 38 -17 29 73 61 rcurveline
          -20 23 -71 -60 rlineto
          24 -24 -33 14 -39 hhcurveto
          -40 -38 -14 -24 -32 hvcurveto
          -50 60 -28 -23 51 -61 -26 -29 -19 -38 -8 -45 rlinecurve
          -8 -44 6 -38 15 -29 -72 -60 rcurveline
          20 -23 69 59 rlineto
          -25 23 34 -14 41 hhcurveto
          39 39 14 25 33 hvcurveto
          endchar
        </CharString>
        <CharString name="d">
          75 -8 40 -11 -21 511 39 190 -20 350 callgsubr
          hintmask 10111100
          421 callsubr
          hintmask 01111100
          373 callgsubr
          hintmask 10111100
          -100 callsubr
          endchar
        </CharString>
        <CharString name="dagger">
          -128 -235 -21 763 36 hstem
          75 407 vstem
          482 543 rmoveto
          -183 -5 46 238 rlineto
          -43 hlineto
          -38 611 callgsubr
          -139 -765 rlineto
          44 hlineto
          130 765 181 -4 rlineto
          endchar
        </CharString>
        <CharString name="daggerdbl">
          -127 -235 -21 236 34 493 36 hstem
          -17 500 vstem
          476 505 rmoveto
          7 38 -183 -5 45 238 rlineto
          -43 hlineto
          -37 611 callgsubr
          -88 -498 -182 6 -7 -39 183 4 -46 -238 rlineto
          44 hlineto
          37 238 182 -4 8 39 -184 -6 88 498 rlineto
          endchar
        </CharString>
        <CharString name="danda">
          -352 21 -21 742 -20 hstem
          97 170 448 callsubr
          endchar
        </CharString>
        <CharString name="dcaron">
          102 -8 40 -11 -21 511 39 23 28 74 65 350 callgsubr
          187.5 597 callsubr
          hintmask 10101111
          796 740 rmoveto
          -69 hlineto
          -11 -65 rlineto
          42 hlineto
          hintmask 10111111
          -5 -27 rlineto
          -31 -6 -14 -16 -35 hhcurveto
          -5 -28 rlineto
          50 34 22 68 12 hvcurveto
          hintmask 10101111
          3 21 3 25 1 31 rrcurveto
          -743 -468 rmoveto
          558 callgsubr
          67 85 45 hvcurveto
          hintmask 01101111
          373 callgsubr
          hintmask 10101111
          -100 callsubr
          endchar
        </CharString>
        <CharString name="dcroat">
          70 -8 40 -11 -21 511 39 84 31 -31 106 350 callgsubr
          hintmask 10110110
          421 callsubr
          hintmask 01110110
          -26 -144 rlineto
          44 hlineto
          112 634 rlineto
          66 hlineto
          6 31 rlineto
          -66 hlineto
          hintmask 10101110
          13 75 rlineto
          -44 hlineto
          hintmask 10110110
          -13 -75 rlineto
          -173 hlineto
          -5 -31 rlineto
          172 hlineto
          -41 -233 rlineto
          85 -17 -72 64 -114 -90 callsubr
          endchar
        </CharString>
        <CharString name="degree">
          -223 347 31 285 31 hstem
          69 39 245 40 vstem
          73 521 rmoveto
          -105 -19 52 -69 94 hhcurveto
          94 76 69 105 19 hvcurveto
          104 18 -52 69 -94 hhcurveto
          -94 -76 -69 -104 -18 hvcurveto
          277 hmoveto
          -92 -16 -59 -51 -70 hhcurveto
          -71 -39 51 92 16 hvcurveto
          90 16 58 52 70 hhcurveto
          71 40 -52 -90 -16 hvcurveto
          endchar
        </CharString>
        <CharString name="dieresis">
          -281 625 76 hstem
          117 75 69 76 vstem
          149 625 -96 callsubr
          endchar
        </CharString>
        <CharString name="divide">
          15 355 40 hstemhm
          67 517 -338 77 -11 77 hintmask 11000000
          535 callsubr
          hintmask 10100000
          -307 -272 rmoveto
          -18 callsubr
          hintmask 10010000
          66 429 rmoveto
          358 callsubr
        </CharString>
        <CharString name="divide.ss01">
          15 128 72 155 40 158 71 hstem
          67 517 vstem
          535 callsubr
          -324 -195 rmoveto
          -13 -72 rlineto
          71 hlineto
          13 72 rlineto
          3 424 582 callgsubr
        </CharString>
        <CharString name="dollar">
          -32 -7 38 640 38 hstemhm
          44 47 10 47 286 46 0 48 hintmask 11011000
          353 796 rmoveto
          -15 -87 rlineto
          -128 -88 -77 -100 -17 hvcurveto
          -24 -133 97 -30 95 -28 -55 -308 rcurveline
          hintmask 11111000
          -100 11 -30 76 3 53 rrcurveto
          -47 hlineto
          -9 -91 62 -77 114 -11 -14 -81 rcurveline
          32 hlineto
          14 80 rlineto
          141 77 97 87 15 hvcurveto
          25 137 -96 31 -95 28 53 296 rcurveline
          hintmask 11010100
          87 -12 29 -64 1 -45 rrcurveto
          48 hlineto
          1 76 -48 73 -112 11 16 88 rcurveline
          hintmask 11011000
          46 -621 rmoveto
          -14 -77 -62 -65 -105 -2 53 300 rcurveline
          78 -24 68 -32 -18 -100 rrcurveto
          -280 359 rmoveto
          90 16 72 47 92 hhcurveto
          -51 -288 -79 24 -67 29 17 98 rlinecurve
          endchar
        </CharString>
        <CharString name="dotaccent">
          -448 625 76 hstem
          105 76 vstem
          137 625 -42 callgsubr
        </CharString>
        <CharString name="dotlessi">
          273 callsubr
          hstem
          33 142 vstem
          59 callsubr
          endchar
        </CharString>
        <CharString name="dottedcircle">
          53 -9 84 -70 84 -52 84 -40 84 -32 84 -23 84 -25 84 -22 84 -32 84 -37 84 -57 84 -69 84 hstemhm
          50 86 -71 86 -56 86 -40 86 -34 86 -21 86 -27 86 -24 86 -33 86 -47 86 -52 86 -76 86 hintmask 000100001000001000000100
          557 409 -17 callgsubr
          -376 -286 -17 callgsubr
          hintmask 010001000000100010000000
          98 -76 -17 callgsubr
          -143 189 -17 callgsubr
          hintmask 100000010000010000100000
          267 -203 -17 callgsubr
          -252 324 -17 callgsubr
          hintmask 001000000100000100001000
          367 -278 -17 callgsubr
          -291 377 -17 callgsubr
          hintmask 000010000001000001000010
          364 -281 -17 callgsubr
          -247 323 -17 callgsubr
          hintmask 000000100010000000010001
          257 -203 -17 callgsubr
          -136 188 -17 callgsubr
          endchar
        </CharString>
        <CharString name="doubledanda">
          -177 21 -21 742 -20 hstem
          97 345 448 callsubr
          134 hmoveto
          -130 -742 rlineto
          41 hlineto
          130 742 rlineto
          endchar
        </CharString>
        <CharString name="dvA">
          222 49 callsubr
          151 hlineto
          6 35 rlineto
          -191 455 callsubr
          hintmask 1101001101000000
          -40 callsubr
          hintmask 1100110101000000
          386 callgsubr
          endchar
        </CharString>
        <CharString name="dvAA">
          500 49 callsubr
          237 85 callsubr
          41 -34 callsubr
          6 35 rlineto
          -469 455 callsubr
          hintmask 1101001101000000
          -40 callsubr
          hintmask 1100110101000000
          386 callgsubr
          endchar
        </CharString>
        <CharString name="dvAI">
          52 19 36 650 35 196 34 hstem
          90 40 vstem
          294 19 rmoveto
          33 callgsubr
          126 8 callgsubr
          -128 hlineto
          218 -94 -47 12 -118 hhcurveto
          -35 293 callsubr
          35 hlineto
          102 39 -12 -184 84 hvcurveto
          -547 269 callsubr
          endchar
        </CharString>
        <CharString name="dvAU">
          192 callgsubr
          101 29 115 30 331 callgsubr
          hintmask 1110010111010000
          317 callsubr
          -78 hlineto
          272 -91 361 callsubr
          -36 hlineto
          -5 -29 rlineto
          36 hlineto
          105 37 -6 -104 102 hvcurveto
          -354 455 callsubr
          hintmask 1101001111010000
          -40 callsubr
          hintmask 1100110111010000
          386 callgsubr
          -36 hlineto
          65 callsubr
          hintmask 1110010111100000
          62 callsubr
          endchar
        </CharString>
        <CharString name="dvAbbreviationsign">
          -95 198 29 258 29 hstem
          86 331 vstem
          280 514 rmoveto
          -96 -78 -66 -92 -17 hvcurveto
          -92 -16 59 -66 97 hhcurveto
          94 75 65 91 16 hvcurveto
          94 16 -56 66 -94 hhcurveto
          -3 -29 rmoveto
          77 43 -54 -77 -13 hvcurveto
          -75 -14 -62 -52 -77 hhcurveto
          -79 -46 53 76 13 hvcurveto
          76 13 66 53 79 hhcurveto
          endchar
        </CharString>
        <CharString name="dvAcandra">
          222 55 callgsubr
          100 33 331 callgsubr
          hintmask 1100110110100000
          264 433 rmoveto
          32 callsubr
          40 hlineto
          517 callsubr
          -60 -341 rlineto
          -257 hlineto
          hintmask 1101001110100000
          -40 callsubr
          hintmask 1100110110100000
          386 callgsubr
          764 572 79 callsubr
          endchar
        </CharString>
        <CharString name="dvAnusvara">
          -598 848 70 hstem
          -84 71 vstem
          -13 883 rmoveto
          20 3 -12 15 -21 hhcurveto
          -20 -18 -15 389 callsubr
          13 -15 20 89 callgsubr
          3 hvcurveto
          endchar
        </CharString>
        <CharString name="dvAnusvara.amI">
          -598 848 70 hstem
          81 72 vstem
          153 883 568 callsubr
          15 -20 499 callgsubr
          12 -15 21 89 callgsubr
          4 hvcurveto
          endchar
        </CharString>
        <CharString name="dvAvagraha">
          -34 70 36 531 35 hstemhm
          34 491 -139 40 hintmask 11100000
          281 70 rmoveto
          hintmask 11010000
          94 43 54 55 8 hvcurveto
          28 153 -260 96 23 132 rrcurveto
          62 11 60 15 51 hhcurveto
          180 8 callgsubr
          -189 hlineto
          -74 -71 -25 -82 -14 hvcurveto
          -29 -158 261 -95 -23 -128 rrcurveto
          -43 -6 -37 -35 -62 hhcurveto
          -241 hlineto
          -6 -36 rlineto
          endchar
        </CharString>
        <CharString name="dvB">
          449 callgsubr
          561 347 rmoveto
          108 18 -54 130 -167 -27 callsubr
          151 106 111 126 22 hvcurveto
          -206 207 -41 callgsubr
          269 151 14 callgsubr
          -598 -107 callsubr
          258 -564 rmoveto
          -112 -85 -85 callgsubr
          -51 -22 -64 hhcurveto
          endchar
        </CharString>
        <CharString name="dvBA">
          92 359 callgsubr
          32 412 545 callsubr
          hstem
          72 37 423 13 vstem
          505 hmoveto
          -53 callsubr
          -754 -107 callsubr
          563 314 callgsubr
          -134 -119 -90 -148 -25 hvcurveto
          174 callsubr
          -22 callgsubr
          endchar
        </CharString>
        <CharString name="dvBH">
          -95 124 424 callgsubr
          265 36 hstem
          70 262 callgsubr
          vstem
          215 159 -43 callgsubr
          195 hlineto
          6 34 rlineto
          -195 512 callgsubr
          -44 callgsubr
          100 70 66 129 22 hvcurveto
          endchar
        </CharString>
        <CharString name="dvBHA">
          162 21 -21 124 35 255 34 257 342 callsubr
          hintmask 11110111
          215 159 -43 callgsubr
          187 hlineto
          144 callgsubr
          125 705 rlineto
          151 302 callsubr
          hintmask 11101111
          -44 callgsubr
          hintmask 11110111
          242 callsubr
        </CharString>
        <CharString name="dvBH_LA">
          790 92 36 -4 35 127 105 23 34 70 35 -35 36 -36 222 -35 342 callsubr
          107 397 callsubr
          -27 28.5 321.5 42 hintmask 0101010101111101
          215 159 -43 callgsubr
          165 hlineto
          -11 -25 -8 -27 -5 -30 rrcurveto
          hintmask 1001010101111101
          -135 -25 63 -105 150 hhcurveto
          11 518 callsubr
          -48 callgsubr
          618 callsubr
          107 hhcurveto
          103 217 callgsubr
          -25 198 callsubr
          hintmask 1011001001111011
          36 hlineto
          1 11 rlineto
          134 24 608 callgsubr
          -115 -20 -79 -88 -125 hhcurveto
          -10 -10 1 1 -10 hvcurveto
          -7 -36 rlineto
          -1 12 13 -1 12 hhcurveto
          150 -1 91 103 24 136 rrcurveto
          hintmask 1011100101111101
          21 118 -45 93 -103 430 callsubr
          -882 370 callgsubr
          565 hlineto
          -27 -152 -107 -7 -58 -84 -26 -71 rlinecurve
          -2 hlineto
          hintmask 0101010011111101
          74 -34 89 -114 -83 -65 -40 -66 -41 vhcurveto
          -177 512 callgsubr
          -44 callgsubr
          hintmask 0101010101111101
          242 callsubr
        </CharString>
        <CharString name="dvBH_NA">
          678 308 callgsubr
          -14 35 234 34 25 36 -35 35 196 342 callsubr
          116 38 308 35 hintmask 1101001011111000
          215 159 -43 callgsubr
          182 hlineto
          -17 -25 -11 -29 -6 -33 rrcurveto
          hintmask 1011011011111000
          -106 -18 66 -76 112 hhcurveto
          106 90 72 107 19 hvcurveto
          13 71 -27 53 -42 26 rrcurveto
          247 hlineto
          -84 -474 rlineto
          138 callsubr
          -732 -107 callsubr
          540 213 callgsubr
          hintmask 1101000111111000
          -67 -57 -22 -39 -41 hvcurveto
          -205 512 callgsubr
          160 callsubr
          -91 -73 -63 -100 -14 136 callgsubr
          82 12 58 46 65 528 callsubr
          -102 -83 -61 -101 -18 hvcurveto
          -97 -17 484 callsubr
          hintmask 1101001011111000
          124 callgsubr
          hintmask 1011101011111000
          203 6 rmoveto
          89 423 callsubr
          85 16 hvcurveto
          endchar
        </CharString>
        <CharString name="dvBH_R">
          -105 144 35 236 34 264 36 hstem
          586 callsubr
          vstem
          404 callgsubr
          14 63 208 callsubr
          195 hlineto
          7 34 rlineto
          -196 hlineto
          17 100 rlineto
          151 callgsubr
          584 callgsubr
          -165 -404 rmoveto
          341 291 7 44 -399 -335 rlineto
          endchar
        </CharString>
        <CharString name="dvBH_RA">
          183 21 -21 144 35 236 34 256 35 -27 36 hstemhm
          586 callsubr
          hintmask 11110111
          404 callgsubr
          14 63 208 callsubr
          209 hlineto
          -23 -130 -415 -350 rlineto
          51 hlineto
          357 305 -42 -240 rlineto
          38 hlineto
          124 -5 callsubr
          -190 hlineto
          -52 -291 rlineto
          -209 hlineto
          17 100 rlineto
          hintmask 11101111
          151 callgsubr
          hintmask 11110111
          584 callgsubr
          endchar
        </CharString>
        <CharString name="dvBH_R_YA">
          617 323 callgsubr
          -20 35 236 33 257 35 -27 36 hstemhm
          586 callsubr
          118 39 hintmask 1011101111000000
          404 callgsubr
          12 65 208 callsubr
          155 hlineto
          -1 -4 -1 -4 -1 -5 -10 -55 2 -47 13 -40 -386 -325 rcurveline
          51 hlineto
          347 297 rlineto
          hintmask 1101101111000000
          -66 34 70 -37 98 19 callsubr
          17 101 rlineto
          hintmask 1011011111000000
          122 22 -37 78 -105 hhcurveto
          -91 -73 -63 -99 -14 hvcurveto
          -2 -14 -1 -15 -14 vvcurveto
          39 hlineto
          15 1 13 2 13 vhcurveto
          82 12 56 46 68 hhcurveto
          80 24 -62 -98 -17 hvcurveto
          -18 -105 rlineto
          -114 hlineto
          -100 -82 -54 -89 -18 hvcurveto
          -95 -19 61 -66 98 hhcurveto
          hintmask 1011101111000000
          584 callgsubr
          hintmask 1101101111000000
          395 -175 rmoveto
          -144 -77 83 617 callgsubr
          1 4 1 5 1 7 rrcurveto
          91 callsubr
          endchar
        </CharString>
        <CharString name="dvBH_VA">
          577 292 callsubr
          -25 424 callgsubr
          97 34 126 35 -27 36 hstemhm
          70 556 callgsubr
          hintmask 1101110111110000
          776 149 31 callgsubr
          hintmask 1011110111110000
          -561 10 -43 callgsubr
          170 541 callsubr
          hintmask 1101110111110000
          25 callsubr
          hintmask 1011101111110000
          -44 callgsubr
          hintmask 1011110111110000
          242 callsubr
        </CharString>
        <CharString name="dvBH_YA">
          617 308 callgsubr
          -30 35 250 34 257 342 callsubr
          117 39 hintmask 1101101111000000
          215 159 -24 callsubr
          hintmask 1011101111000000
          588 5 76 callgsubr
          hintmask 1101101111000000
          -399 155 531 callgsubr
          hintmask 1011101111000000
          -171 -31 87 -102 163 19 callsubr
          18 101 rlineto
          hintmask 1101011111000000
          -44 callgsubr
          hintmask 1101101111000000
          242 callsubr
        </CharString>
        <CharString name="dvB_BA">
          542 359 callgsubr
          31 -31 32 412 30 -30 194 callsubr
          423 30 423 13 hintmask 1100111110000000
          355 554 rmoveto
          142 47 -109 -98 -17 hvcurveto
          -1 vlineto
          -8 -44 -23 -50 -39 -39 -257 286 rcurveline
          164 callsubr
          601 -554 101 callgsubr
          -1205 -107 callsubr
          1014 hlineto
          -31 callgsubr
          hintmask 1101011110000000
          348 callsubr
          -103 -94 -53 -92 -50 hvcurveto
          hintmask 1100111110000000
          78 -18 -61 68 -121 -27 callsubr
          112 87 61 83 47 hvcurveto
          hintmask 1010111110000000
          -91 20 80 -53 101 hhcurveto
          110 80 60 72 41 hvcurveto
          462 callsubr
          hintmask 1100111110000000
          -632 328 callsubr
          hintmask 1011011110000000
          453 1 rmoveto
          -114 -83 -85 callgsubr
          -52 -22 -63 hhcurveto
          70 412 -10 callsubr
          endchar
        </CharString>
        <CharString name="dvB_BHA">
          601 359 callgsubr
          31 -17 424 callgsubr
          106 31 120 35 -35 44 hstemhm
          71 36 403 37 -17 34 287 38 hintmask 1011110110100000
          654 159 rmoveto
          -73 -45 448 callgsubr
          -57 -57 -76 hhcurveto
          189 316 callsubr
          187 5 callsubr
          152 302 callsubr
          hintmask 1101101101100000
          122 21 -37 78 -105 hhcurveto
          hintmask 1101110101100000
          -20 -17 -3 -6 -16 hvcurveto
          -677 -107 callsubr
          689 hlineto
          5 14 14 3 16 528 callsubr
          -60 -53 -21 -37 -38 hvcurveto
          97 -1 -60 98 -145 -27 callsubr
          hintmask 1101110110100000
          99 80 48 69 49 hvcurveto
          hintmask 1011110110100000
          -64 12 52 -39 76 212 callsubr
          hintmask 1101110101100000
          -488 235 612 callsubr
          -6 -2 -7 -1 -6 -3 -8 -3 -8 -2 -9 -13 -31 -19 -32 -26 -26 98 callsubr
          endchar
        </CharString>
        <CharString name="dvB_BH_RA">
          622 359 callgsubr
          31 3 35 236 34 105 31 120 35 -35 44 hstemhm
          71 36 423 21 -21 34 288 37 hintmask 1101110101100000
          355 554 612 callsubr
          -4 0 -4 -1 -4 -4 -8 -2 -9 -3 -10 -11 -33 -20 -33 -28 -28 98 callsubr
          hintmask 1011110110100000
          373 38 rmoveto
          -73 -45 50 76 14 hvcurveto
          68 14 64 42 78 hhcurveto
          113 hlineto
          -14 -78 rlineto
          -101 -17 -57 -57 -77 hhcurveto
          56 526 rmoveto
          5 15 15 3 16 hhcurveto
          80 24 -62 -98 -17 hvcurveto
          -18 -104 rlineto
          -113 hlineto
          hintmask 1101110101100000
          -61 -54 -20 -35 -37 hvcurveto
          95 -3 -60 96 -143 -27 callsubr
          104 83 53 74 48 hvcurveto
          hintmask 1011110101100000
          -57 15 51 -36 72 hhcurveto
          99 71 67 128 22 hvcurveto
          13 76 rlineto
          209 hlineto
          -23 -131 -414 -349 rlineto
          50 hlineto
          357 305 -42 -240 rlineto
          38 hlineto
          56 callgsubr
          7 35 rlineto
          -191 hlineto
          -52 -291 rlineto
          -209 hlineto
          18 100 rlineto
          hintmask 1101101101100000
          160 callsubr
          hintmask 1101110101100000
          -20 -17 -3 -6 -16 hvcurveto
          -677 378 callsubr
        </CharString>
        <CharString name="dvB_DA">
          462 15 -21 116 31 -23 34 390 36 -24 194 callsubr
          421 36 hintmask 11001111
          355 554 rmoveto
          138 48 -103 -96 -13 hvcurveto
          -2 -1 -2 -3 vvcurveto
          -1 -3 0 -3 -1 -4 -9 -42 -23 -46 -36 -37 98 callsubr
          865 564 -92 callsubr
          -1123 -107 callsubr
          921 hlineto
          hintmask 11010111
          -22 -127 rlineto
          -93 hlineto
          -113 -107 -42 -98 -54 hvcurveto
          hintmask 11001111
          79 -18 -62 68 -121 -27 callsubr
          112 87 61 83 47 hvcurveto
          hintmask 10110111
          -84 18 70 -52 97 -81 callsubr
          endchar
        </CharString>
        <CharString name="dvB_DHA">
          531 359 callgsubr
          31 -31 35 266 415 callgsubr
          109 31 120 35 -26 26 -26 35 hstemhm
          71 36 450 424 callsubr
          hintmask 1100101100111000
          310 callsubr
          935 564 -92 callsubr
          -192 hlineto
          -5 -35 -60 -339 rlineto
          hintmask 1010101010111000
          268 callsubr
          71 11 61 56 75 hhcurveto
          83 38 -56 -91 -25 hvcurveto
          34 hlineto
          hintmask 1100101001111000
          113 callgsubr
          hintmask 1100011100111000
          -21 367 callgsubr
          -654 -107 callsubr
          596 hlineto
          -33 -28 -22 -40 -8 -46 71 callsubr
          hintmask 1101001100111000
          -58 -6 -63 -38 -25 -74 171 callgsubr
          72 49 hvcurveto
          hintmask 1010101100111000
          -78 12 76 -42 94 555 callgsubr
          41 -92 callgsubr
          endchar
        </CharString>
        <CharString name="dvB_DH_VA">
          979 368 callsubr
          -35 31 -26 34 262 415 callgsubr
          100 34 -25 31 120 35 -26 26 -26 35 hstemhm
          71 36 450 424 callsubr
          90 38 407 15 hintmask 101001010100111110000000
          310 callsubr
          1230 564 259 callgsubr
          hintmask 110001010010111110000000
          68 callsubr
          hintmask 100101010001111110000000
          113 callgsubr
          hintmask 100100110100111110000000
          -21 367 callgsubr
          -654 -107 callsubr
          596 hlineto
          -33 -28 -22 -40 -8 -46 71 callsubr
          hintmask 101010001100111110000000
          -58 -5 -63 -38 -24 -75 rrcurveto
          -1 hlineto
          171 callgsubr
          71 48 hvcurveto
          hintmask 110001010100111110000000
          -80 12 76 -40 102 hhcurveto
          502 callsubr
          hintmask 100101010100111110000000
          202 callsubr
          40 hlineto
          -215 149 75 callsubr
          endchar
        </CharString>
        <CharString name="dvB_JA">
          669 359 callgsubr
          31 8 441 callgsubr
          48 194 callsubr
          423 27 -27 36 hintmask 1101111010000000
          285 328 callsubr
          1073 564 -92 callsubr
          -1331 -107 callsubr
          1140 307 callsubr
          -273 321 callsubr
          hintmask 1111111100000000
          232 callsubr
          hintmask 1101111010000000
          134 callgsubr
          hintmask 1111111010000000
          131 callgsubr
        </CharString>
        <CharString name="dvB_JHA">
          685 -2 32 -30 317 -207 31 145 31 209 32 -4 31 120 35 hstemhm
          76 37 784 38 hintmask 1011101110000000
          291 141 rmoveto
          -112 -85 431 callgsubr
          256 -285 rcurveline
          -34 -38 -50 -23 -65 hhcurveto
          411 176 rmoveto
          551 callsubr
          180 hlineto
          6 32 rlineto
          -1 hlineto
          27 147 rlineto
          219 hlineto
          -68 -388 rlineto
          hintmask 0100101110000000
          -16 -317 101 callgsubr
          -1347 -107 callsubr
          897 hlineto
          -27 -147 rlineto
          -153 hlineto
          -86 -101 -30 -107 -18 hvcurveto
          -10 -50 -9 -52 -23 -58 -41 -45 rlinecurve
          hintmask 1011011110000000
          -254 284 rlineto
          35 44 55 19 57 hhcurveto
          31 27 -6 -8 23 hvcurveto
          6 31 rlineto
          9 -24 -29 5 -31 hhcurveto
          -141 -119 -93 -147 -27 hvcurveto
          -145 -24 94 -90 136 hhcurveto
          146 93 104 126 33 hvcurveto
          -37 23 50 -17 58 hhcurveto
          59 hlineto
          110 52 -51 -84 -16 hvcurveto
          -63 -10 -53 -58 -103 hhcurveto
          -119 -47 68 74 1 hvcurveto
          -35 hlineto
          -44 -245 rlineto
          38 hlineto
          32 176 rlineto
          -27 6 37 -78 132 hhcurveto
          122 67 69 81 14 hvcurveto
          13 73 -28 43 -44 22 241 -1 rcurveline
          hintmask 0100101110000000
          -50 -285 rlineto
          endchar
        </CharString>
        <CharString name="dvB_J_YA">
          1126 359 callgsubr
          31 -12 35 -15 36 253 35 -31 31 81 194 callsubr
          423 27 -27 36 517 38 hintmask 1010101110110000
          355 554 -41 callgsubr
          hintmask 1100101110110000
          -70 -413 rmoveto
          -112 -85 -85 callgsubr
          -51 -22 -64 hhcurveto
          hintmask 1010011110110000
          1028 23 rmoveto
          -144 -71 112 617 callgsubr
          1 3 0 5 2 6 127 2 95 47 23 127 15 87 rcurveline
          124 callsubr
          -122 -24 -108 -79 -119 52 callgsubr
          -1789 -107 callsubr
          1324 525 callsubr
          hintmask 1001101111010000
          235 callsubr
          232 callsubr
          hintmask 1100101110110000
          134 callgsubr
          hintmask 1001101110110000
          14 -61 47 -40 73 -1 112 -1 77 79 19 110 18 101 rcurveline
          179 hlineto
          9 8 0 7 hhcurveto
          -2 -1 -2 -2 vvcurveto
          hintmask 1010101110110000
          -172 -31 81 -131 162 hhcurveto
          119 84 -63 callsubr
        </CharString>
        <CharString name="dvB_JxA">
          669 -14 70 -35 -21 110 31 8 441 callgsubr
          48 194 callsubr
          423 27 -27 36 40 71 hintmask 1010111101100000
          677 21 rmoveto
          -105 callgsubr
          -392 120 rmoveto
          -112 -85 -85 callgsubr
          -51 -22 -64 hhcurveto
          1073 564 -92 callsubr
          -1331 -107 callsubr
          1140 307 callsubr
          -273 321 callsubr
          hintmask 0111111110000000
          232 callsubr
          hintmask 0110111101000000
          134 callgsubr
          hintmask 0111111101000000
          131 callgsubr
        </CharString>
        <CharString name="dvB_LA">
          748 92 36 -18 31 145 105 127 205 callsubr
          -186 194 callsubr
          414 36 -27 27 316 26 -26 28 321 42 hintmask 1011000110110100
          994 606 callsubr
          21 118 -44 93 -104 430 callsubr
          -1410 -107 callsubr
          1092 hlineto
          -26 -152 -108 -7 -58 -83 -25 -72 rlinecurve
          -3 hlineto
          hintmask 0100100110110100
          74 -34 89 -114 -86 -66 -45 -73 -40 vhcurveto
          hintmask 0100001111010100
          79 -17 -62 70 -122 -27 callsubr
          106 85 55 77 48 hvcurveto
          hintmask 1000001111010100
          -89 11 63 -61 114 hhcurveto
          10 518 callsubr
          hintmask 1000100110110100
          375 callsubr
          hintmask 1010010010101100
          266 callsubr
          hintmask 1011000110110100
          -1 12 14 -1 11 hhcurveto
          hintmask 0100001110110100
          -709 49 rmoveto
          -112 -85 -85 callgsubr
          -51 -22 -64 hhcurveto
          70 413 612 callsubr
          -4 rlineto
          0 0 -1 0 vhcurveto
          -9 -43 -23 -47 -37 -38 -257 286 rcurveline
          164 callsubr
          endchar
        </CharString>
</ttFont>
